<svg width="148" height="32" viewBox="0 0 148 32" fill="none" xmlns="http://www.w3.org/2000/svg">
<path d="M0 23.4667L23.4667 0L32 8.53333L8.53333 32L0 23.4667Z" fill="url(#paint0_linear_101_182)"/>
<path d="M42.1631 26.6668V5.34001H55.4977V7.86084H44.999V13.7046H54.7816V16.2254H44.999V24.146H55.4977V26.6668H42.1631Z" fill="#141C24"/>
<path d="M61.1696 26.6668H58.4769V4.38037H61.1696V26.6668Z" fill="#141C24"/>
<path d="M67.8727 26.6668H65.18V10.6681H67.8727V26.6668ZM68.0589 7.98975H64.9938V5.19678H68.0589V7.98975Z" fill="#141C24"/>
<path d="M76.667 26.9819C75.1965 26.9819 74.0507 26.5666 73.2295 25.7358C72.4083 24.8956 71.9977 23.5731 71.9977 21.7684V12.9025H70.1787V10.6681H71.9977V6.07048H74.6904V10.6681H79.6462V12.9025H74.6904V20.508C74.6904 21.3196 74.7048 21.945 74.7334 22.3843C74.762 22.8235 74.8719 23.2341 75.0628 23.616C75.2252 23.9502 75.4877 24.2033 75.8506 24.3752C76.2134 24.5375 76.7052 24.6187 77.3258 24.6187C77.7651 24.6187 78.19 24.5566 78.6006 24.4325C79.0112 24.2988 79.3072 24.189 79.4886 24.103H79.6462V26.5236C79.1401 26.6668 78.6245 26.7766 78.0993 26.853C77.5837 26.939 77.1062 26.9819 76.667 26.9819Z" fill="#141C24"/>
<path d="M88.598 27.0392C86.0485 27.0392 84.0672 26.3231 82.654 24.8908C81.2503 23.4489 80.5485 21.4055 80.5485 18.7606C80.5485 16.1538 81.2312 14.0818 82.5967 12.5444C83.9621 10.9976 85.7477 10.2241 87.9534 10.2241C88.9465 10.2241 89.825 10.3674 90.5889 10.6538C91.3528 10.9403 92.0212 11.3891 92.5941 12.0002C93.167 12.6113 93.6062 13.3608 93.9118 14.2489C94.2173 15.1273 94.3701 16.2063 94.3701 17.4858V18.9468H83.2842C83.2842 20.8088 83.7521 22.2315 84.6878 23.215C85.6236 24.1985 86.9174 24.6903 88.5693 24.6903C89.1613 24.6903 89.739 24.6234 90.3024 24.4897C90.8753 24.3561 91.3909 24.1842 91.8493 23.9741C92.3363 23.7545 92.7468 23.5444 93.0811 23.3439C93.4153 23.1338 93.6922 22.9381 93.9118 22.7567H94.0693V25.6929C93.7542 25.817 93.3627 25.9746 92.8949 26.1655C92.427 26.347 92.0068 26.4902 91.6344 26.5952C91.1093 26.7384 90.6318 26.8483 90.2021 26.9246C89.782 27.001 89.2473 27.0392 88.598 27.0392ZM91.749 16.8843C91.7299 16.1586 91.644 15.5331 91.4912 15.008C91.3384 14.4828 91.1188 14.0388 90.8324 13.6759C90.5173 13.2749 90.1114 12.9693 89.6149 12.7593C89.1279 12.5492 88.5216 12.4442 87.7959 12.4442C87.0798 12.4442 86.4686 12.554 85.9626 12.7736C85.466 12.9837 85.0125 13.294 84.6019 13.7046C84.2008 14.1247 83.8953 14.5926 83.6852 15.1082C83.4752 15.6143 83.3415 16.2063 83.2842 16.8843H91.749Z" fill="#141C24"/>
<path d="M112.059 26.6668H108.808L103.608 18.1304L98.3232 26.6668H95.2581L102.033 15.9963L95.4587 5.34001H98.6956L103.795 13.7189L108.965 5.34001H112.045L105.37 15.853L112.059 26.6668Z" fill="#141C24"/>
<path d="M120.495 27.0249C119.397 27.0249 118.39 26.8578 117.473 26.5236C116.556 26.1798 115.769 25.6642 115.11 24.9767C114.451 24.2892 113.94 23.4251 113.577 22.3843C113.214 21.3339 113.033 20.1022 113.033 18.689C113.033 17.2853 113.219 16.0726 113.591 15.0509C113.973 14.0292 114.479 13.1699 115.11 12.4728C115.74 11.7758 116.523 11.241 117.459 10.8687C118.404 10.4867 119.416 10.2957 120.495 10.2957C121.374 10.2957 122.219 10.4199 123.03 10.6681C123.851 10.9164 124.582 11.2029 125.222 11.5275V14.5496H125.064C124.873 14.3873 124.625 14.2011 124.319 13.991C124.023 13.781 123.66 13.5661 123.231 13.3465C122.858 13.1555 122.419 12.9884 121.913 12.8452C121.407 12.702 120.92 12.6304 120.452 12.6304C119.058 12.6304 117.936 13.1603 117.086 14.2202C116.246 15.2706 115.826 16.7601 115.826 18.689C115.826 20.5796 116.232 22.0548 117.043 23.1147C117.864 24.1651 119.001 24.6903 120.452 24.6903C121.331 24.6903 122.166 24.5088 122.959 24.146C123.751 23.7831 124.453 23.3153 125.064 22.7423H125.222V25.7645C124.954 25.8886 124.62 26.0414 124.219 26.2228C123.818 26.3947 123.455 26.5236 123.131 26.6095C122.672 26.7432 122.262 26.8435 121.899 26.9103C121.536 26.9867 121.068 27.0249 120.495 27.0249Z" fill="#141C24"/>
<path d="M134.632 27.0392C132.082 27.0392 130.101 26.3231 128.688 24.8908C127.284 23.4489 126.582 21.4055 126.582 18.7606C126.582 16.1538 127.265 14.0818 128.631 12.5444C129.996 10.9976 131.782 10.2241 133.987 10.2241C134.98 10.2241 135.859 10.3674 136.623 10.6538C137.387 10.9403 138.055 11.3891 138.628 12.0002C139.201 12.6113 139.64 13.3608 139.946 14.2489C140.251 15.1273 140.404 16.2063 140.404 17.4858V18.9468H129.318C129.318 20.8088 129.786 22.2315 130.722 23.215C131.657 24.1985 132.951 24.6903 134.603 24.6903C135.195 24.6903 135.773 24.6234 136.336 24.4897C136.909 24.3561 137.425 24.1842 137.883 23.9741C138.37 23.7545 138.781 23.5444 139.115 23.3439C139.449 23.1338 139.726 22.9381 139.946 22.7567H140.103V25.6929C139.788 25.817 139.397 25.9746 138.929 26.1655C138.461 26.347 138.041 26.4902 137.668 26.5952C137.143 26.7384 136.666 26.8483 136.236 26.9246C135.816 27.001 135.281 27.0392 134.632 27.0392ZM137.783 16.8843C137.764 16.1586 137.678 15.5331 137.525 15.008C137.372 14.4828 137.153 14.0388 136.866 13.6759C136.551 13.2749 136.145 12.9693 135.649 12.7593C135.162 12.5492 134.555 12.4442 133.83 12.4442C133.114 12.4442 132.502 12.554 131.996 12.7736C131.5 12.9837 131.046 13.294 130.636 13.7046C130.235 14.1247 129.929 14.5926 129.719 15.1082C129.509 15.6143 129.375 16.2063 129.318 16.8843H137.783Z" fill="#141C24"/>
<path d="M145.875 26.6668H143.183V4.38037H145.875V26.6668Z" fill="#141C24"/>
<defs>
<linearGradient id="paint0_linear_101_182" x1="0" y1="32" x2="36.5825" y2="25.4001" gradientUnits="userSpaceOnUse">
<stop stop-color="#40BF7F"/>
<stop offset="1" stop-color="#7AD65C"/>
</linearGradient>
</defs>
</svg>
