<svg width="257" height="144" viewBox="0 0 257 144" fill="none" xmlns="http://www.w3.org/2000/svg">
<path opacity="0.2" d="M224.499 94.5003C174.999 132 66.6399 155.059 64.9099 78.8592C64.2962 51.8312 81.7963 32.5134 104.046 29.7771C128.966 26.7124 153.514 42.6657 156.579 67.5854C163.365 122.765 71.9526 172.855 1.05501 29.795" stroke="#F15060" stroke-width="2" stroke-linecap="round" stroke-dasharray="5.2 5.2"/>
<path d="M242.661 96.4527L249.269 80.3113C251.324 75.2914 246.801 70.0659 241.538 71.3802L224.947 75.5238C219.507 76.8823 218.113 83.9645 222.633 87.2828L226.476 90.105C227.349 90.7461 228.051 91.5915 228.522 92.5672L230.57 96.8185C233.059 101.983 240.489 101.758 242.661 96.4527Z" fill="#FFBB24"/>
</svg>
