<svg width="158" height="40" viewBox="0 0 158 40" fill="none" xmlns="http://www.w3.org/2000/svg">
<rect width="158" height="40" fill="#1E1E1E"/>
<g id="Final">
<path d="M-499 -500C-499 -501.104 -498.105 -502 -497 -502H1697C1698.1 -502 1699 -501.105 1699 -500V6311C1699 6312.1 1698.1 6313 1697 6313H-497C-498.105 6313 -499 6312.1 -499 6311V-500Z" fill="#8C8C8C"/>
<g id="Landing" clip-path="url(#clip0_0_1)">
<rect width="1440" height="5907" transform="translate(-120 -48)" fill="white"/>
<g id="Frame 1000001656">
<g id="Frame 1000001658">
<g id="Logo">
<path id="Vector" d="M18.1768 7.82324V2.82324H2.41211V37.1762H18.1768V32.1762C14.9474 32.1762 11.8502 30.8933 9.56674 28.6097C7.28322 26.3262 6.00034 23.2291 6.00034 19.9997C6.00034 16.7703 7.28322 13.6731 9.56674 11.3897C11.8502 9.10613 14.9474 7.82324 18.1768 7.82324Z" fill="#394149"/>
<path id="Vector_2" d="M18.1768 7.82324V32.1762C21.4062 32.1762 24.5033 30.8933 26.7869 28.6097C29.0704 26.3262 30.3532 23.2291 30.3532 19.9997C30.3532 16.7703 29.0704 13.6731 26.7869 11.3897C24.5033 9.10612 21.4062 7.82324 18.1768 7.82324Z" fill="#394149"/>
<path id="Vector_3" d="M39.2002 10.8828H42.7296V27.8828H39.2002V10.8828Z" fill="#394149"/>
<path id="Vector_4" d="M44.7056 22.0592C44.7056 20.8361 45.0688 19.6406 45.749 18.6241C46.4293 17.6076 47.396 16.816 48.5267 16.3495C49.6574 15.8832 50.901 15.7629 52.1001 16.0041C53.2992 16.2453 54.3996 16.837 55.262 17.7043C56.1243 18.5717 56.7099 19.6755 56.9442 20.876C57.1785 22.0764 57.0512 23.3194 56.5782 24.4474C56.1053 25.5753 55.3082 26.5375 54.2879 27.2119C53.2675 27.8863 52.0699 28.2426 50.8468 28.2356C50.0356 28.242 49.2313 28.0863 48.481 27.7776C47.7308 27.469 47.0496 27.0137 46.4776 26.4386C45.9056 25.8633 45.4543 25.1795 45.15 24.4275C44.8458 23.6755 44.6947 22.8703 44.7056 22.0592ZM53.5527 22.0592C53.5388 21.5319 53.3698 21.0203 53.0667 20.5887C52.7636 20.1569 52.3401 19.8241 51.8488 19.6319C51.3576 19.4396 50.8207 19.3964 50.3052 19.5079C49.7895 19.6192 49.3182 19.88 48.9501 20.2579C48.582 20.6356 48.3334 21.1135 48.2355 21.6319C48.1376 22.1502 48.1947 22.6859 48.3996 23.1719C48.6046 23.6579 48.9482 24.0728 49.3878 24.3644C49.8272 24.6562 50.3428 24.8119 50.8703 24.8121C51.2295 24.8192 51.5862 24.752 51.9182 24.6148C52.2502 24.4777 52.5503 24.2736 52.7999 24.0153C53.0494 23.7569 53.2429 23.4497 53.3685 23.1133C53.494 22.7767 53.5487 22.4179 53.5292 22.0592H53.5527Z" fill="#394149"/>
<path id="Vector_5" d="M70.9529 16.2354V27.306C70.9529 31.2118 67.8941 32.8707 64.8 32.8707C63.7086 32.9602 62.6139 32.7434 61.6392 32.2446C60.6643 31.7457 59.8481 30.9847 59.2823 30.0471L62.2588 28.3295C62.5 28.8158 62.8836 29.217 63.3587 29.4797C63.8337 29.7424 64.3775 29.8542 64.9176 29.8001C65.2617 29.8424 65.6109 29.8083 65.9402 29.7001C66.2696 29.5917 66.5709 29.4121 66.8227 29.1737C67.0746 28.9354 67.2706 28.6444 67.3968 28.3215C67.523 27.9987 67.5763 27.6518 67.5529 27.306V26.2354C67.1422 26.7334 66.621 27.1287 66.0309 27.3901C65.4407 27.6515 64.7977 27.7717 64.1529 27.7413C62.5928 27.7413 61.0967 27.1215 59.9935 26.0183C58.8903 24.9153 58.2706 23.419 58.2706 21.8589C58.2706 20.2988 58.8903 18.8027 59.9935 17.6995C61.0967 16.5963 62.5928 15.9766 64.1529 15.9766C64.7977 15.9461 65.4407 16.0663 66.0309 16.3277C66.621 16.5891 67.1422 16.9844 67.5529 17.4824V16.306L70.9529 16.2354ZM67.5529 21.8236C67.5763 21.2608 67.4309 20.7037 67.1353 20.2242C66.8396 19.7447 66.4074 19.3646 65.8939 19.1327C65.3805 18.9008 64.8095 18.8278 64.2542 18.9231C63.699 19.0184 63.1849 19.2776 62.7782 19.6674C62.3715 20.0571 62.0907 20.5597 61.9719 21.1104C61.853 21.6611 61.9016 22.2347 62.1114 22.7575C62.3213 23.2803 62.6827 23.7284 63.1492 24.0442C63.6157 24.36 64.1661 24.529 64.7294 24.5295C65.097 24.556 65.4661 24.505 65.8127 24.3801C66.1594 24.255 66.4761 24.0587 66.7421 23.8036C67.0082 23.5487 67.2179 23.2407 67.3575 22.8996C67.4972 22.5586 67.5637 22.192 67.5529 21.8236Z" fill="#394149"/>
<path id="Vector_6" d="M72.9408 22.0593C72.9408 20.8372 73.3034 19.6426 73.9826 18.6266C74.6618 17.6106 75.6271 16.819 76.7564 16.3519C77.8857 15.8847 79.1281 15.7631 80.3266 16.0024C81.5251 16.2417 82.6255 16.8311 83.489 17.696C84.3522 18.5611 84.9395 19.6627 85.1765 20.8615C85.4135 22.0605 85.2895 23.3027 84.8203 24.4311C84.351 25.5595 83.5574 26.5233 82.5403 27.2006C81.523 27.8779 80.3277 28.2381 79.1055 28.2358C78.2928 28.2437 77.4866 28.0892 76.7344 27.7814C75.9821 27.4737 75.2988 27.0188 74.7247 26.4435C74.1505 25.8682 73.697 25.1841 73.3906 24.4313C73.0844 23.6785 72.9314 22.872 72.9408 22.0593ZM81.7879 22.0593C81.774 21.5315 81.6046 21.0195 81.3011 20.5875C80.9975 20.1557 80.5732 19.8228 80.0813 19.631C79.5894 19.4391 79.0519 19.3966 78.536 19.509C78.0201 19.6212 77.5488 19.8833 77.1812 20.2622C76.8135 20.6412 76.5659 21.1202 76.4694 21.6393C76.3728 22.1584 76.4315 22.6944 76.6383 23.1801C76.845 23.666 77.1905 24.08 77.6315 24.3704C78.0725 24.6606 78.5893 24.8144 79.1173 24.8122C79.4765 24.8193 79.8332 24.7521 80.1652 24.615C80.4972 24.4779 80.7973 24.2738 81.0468 24.0154C81.2964 23.7571 81.4899 23.4499 81.6154 23.1134C81.741 22.7768 81.7957 22.418 81.7761 22.0593H81.7879Z" fill="#394149"/>
<path id="Vector_7" d="M86.9062 13.1176C86.9062 12.7034 87.0291 12.2985 87.2592 11.9541C87.4893 11.6097 87.8164 11.3413 88.199 11.1828C88.5817 11.0243 89.0027 10.9829 89.409 11.0637C89.8151 11.1445 90.1882 11.3439 90.4812 11.6368C90.774 11.9297 90.9734 12.3029 91.0542 12.709C91.1351 13.1152 91.0935 13.5363 90.9351 13.919C90.7766 14.3016 90.5081 14.6286 90.1638 14.8587C89.8194 15.0889 89.4146 15.2117 89.0004 15.2117C88.4468 15.2056 87.9178 14.983 87.5264 14.5916C87.135 14.2001 86.9124 13.6711 86.9062 13.1176ZM87.2474 16.2352H90.7768V27.8823H87.2474V16.2352Z" fill="#394149"/>
<path id="Vector_8" d="M105.882 22.0591C105.922 22.8337 105.808 23.6085 105.547 24.3389C105.286 25.0692 104.883 25.7408 104.362 26.3148C103.84 26.8889 103.21 27.3541 102.508 27.6837C101.806 28.0134 101.046 28.2009 100.271 28.2356C99.6132 28.2794 98.9543 28.1741 98.3432 27.9276C97.732 27.681 97.1845 27.2997 96.7413 26.8121V32.565H93.2119V16.2356H96.7413V17.3297C97.1851 16.8435 97.7331 16.4639 98.3443 16.2195C98.9554 15.9749 99.614 15.8718 100.271 15.9179C101.043 15.9527 101.8 16.1391 102.499 16.4665C103.199 16.7939 103.827 17.2561 104.348 17.8263C104.87 18.3965 105.273 19.0638 105.537 19.7902C105.8 20.5164 105.917 21.2874 105.882 22.0591ZM102.353 22.0591C102.339 21.5127 102.164 20.9825 101.85 20.5351C101.536 20.0877 101.097 19.7428 100.588 19.5438C100.079 19.3448 99.5228 19.3005 98.9886 19.4164C98.4545 19.5323 97.9665 19.8034 97.5857 20.1955C97.2049 20.5876 96.9483 21.0834 96.8481 21.6208C96.7479 22.1581 96.8085 22.713 97.0224 23.2161C97.2363 23.719 97.5938 24.1477 98.0503 24.4484C98.5067 24.7491 99.0418 24.9083 99.5884 24.9062C99.9627 24.9221 100.336 24.8587 100.684 24.7201C101.033 24.5815 101.348 24.3709 101.609 24.1021C101.87 23.8332 102.071 23.5122 102.199 23.1602C102.328 22.8081 102.38 22.4329 102.353 22.0591Z" fill="#394149"/>
<path id="Vector_9" d="M116.623 24.3878C116.623 27.0702 114.271 28.2113 111.776 28.2113C110.759 28.3029 109.738 28.0872 108.844 27.5923C107.951 27.0973 107.227 26.3458 106.765 25.4349L109.8 23.7172C109.92 24.137 110.181 24.5028 110.539 24.7534C110.896 25.0039 111.329 25.1241 111.765 25.0937C112.6 25.0937 113.023 24.8349 113.023 24.3643C113.023 23.0819 107.294 23.7643 107.294 19.729C107.294 17.1878 109.435 15.9172 111.859 15.9172C112.78 15.8759 113.695 16.085 114.507 16.5221C115.319 16.9591 115.998 17.6079 116.471 18.3996L113.435 19.9996C113.301 19.6961 113.082 19.4379 112.804 19.2563C112.527 19.0746 112.202 18.9773 111.871 18.9761C111.259 18.9761 110.894 19.2113 110.894 19.6231C110.894 20.9643 116.623 20.0819 116.623 24.3878Z" fill="#394149"/>
<path id="Vector_10" d="M129.412 16.2354V27.8824H125.882V26.7883C125.481 27.2726 124.972 27.6558 124.396 27.9072C123.82 28.1586 123.193 28.271 122.565 28.2354C120.212 28.2354 118.2 26.553 118.2 23.4118V16.2354H121.729V22.8824C121.701 23.1603 121.734 23.4409 121.826 23.7049C121.918 23.9688 122.065 24.2097 122.258 24.4111C122.452 24.6124 122.687 24.7694 122.947 24.8711C123.207 24.9728 123.486 25.0168 123.765 25.0001C125.035 25.0001 125.929 24.2471 125.929 22.6471V16.2354H129.412Z" fill="#394149"/>
<path id="Vector_11" d="M149.411 20.729V27.882H145.882V21.0349C145.882 19.8584 145.329 19.129 144.211 19.129C143.094 19.129 142.388 19.9408 142.388 21.3172V27.882H138.858V21.0349C138.858 19.8584 138.306 19.129 137.188 19.129C136.07 19.129 135.364 19.9408 135.364 21.3172V27.882H131.835V16.2349H135.364V17.3055C135.73 16.8325 136.207 16.458 136.754 16.2156C137.3 15.9732 137.898 15.8707 138.494 15.9172C139.09 15.8861 139.686 16.0108 140.22 16.2789C140.754 16.547 141.209 16.9495 141.541 17.4467C141.929 16.9271 142.442 16.5144 143.033 16.247C143.622 15.9795 144.271 15.8661 144.917 15.9172C147.67 15.9172 149.411 17.8231 149.411 20.729Z" fill="#394149"/>
<path id="Vector_12" d="M152.376 16.1648C153.806 16.1648 154.965 15.0059 154.965 13.5765C154.965 12.1471 153.806 10.9883 152.376 10.9883C150.947 10.9883 149.788 12.1471 149.788 13.5765C149.788 15.0059 150.947 16.1648 152.376 16.1648Z" fill="#394149"/>
</g>
</g>
</g>
</g>
<path d="M-497 -501H1697V-503H-497V-501ZM1698 -500V6311H1700V-500H1698ZM1697 6312H-497V6314H1697V6312ZM-498 6311V-500H-500V6311H-498ZM-497 6312C-497.552 6312 -498 6311.55 -498 6311H-500C-500 6312.66 -498.657 6314 -497 6314V6312ZM1698 6311C1698 6311.55 1697.55 6312 1697 6312V6314C1698.66 6314 1700 6312.66 1700 6311H1698ZM1697 -501C1697.55 -501 1698 -500.552 1698 -500H1700C1700 -501.657 1698.66 -503 1697 -503V-501ZM-497 -503C-498.657 -503 -500 -501.657 -500 -500H-498C-498 -500.552 -497.552 -501 -497 -501V-503Z" fill="white" fill-opacity="0.1"/>
</g>
<defs>
<clipPath id="clip0_0_1">
<rect width="1440" height="5907" fill="white" transform="translate(-120 -48)"/>
</clipPath>
</defs>
</svg>
