<svg width="174" height="32" viewBox="0 0 174 32" fill="none" xmlns="http://www.w3.org/2000/svg">
<path d="M32.4593 0C32.4593 4.10912 30.7736 8.04994 27.773 10.9555C24.7724 13.8611 20.7027 15.4934 16.4593 15.4934C12.2158 15.4934 8.14616 13.8611 5.14558 10.9555C2.145 8.04994 0.45929 4.10912 0.45929 1.68264e-06L32.4593 0Z" fill="url(#paint0_linear_101_179)"/>
<path d="M32.4593 16.5066C32.4593 20.6157 30.7736 24.5565 27.773 27.4621C24.7724 30.3677 20.7027 32 16.4593 32C12.2158 32 8.14616 30.3677 5.14558 27.4621C2.145 24.5565 0.45929 20.6157 0.45929 16.5066L32.4593 16.5066Z" fill="url(#paint1_linear_101_179)"/>
<path d="M41.2083 25.3331V4.79975H44.3176L54.6136 20.2584V4.79975H57.723V25.3331H54.6136L44.3176 9.87442V25.3331H41.2083Z" fill="#141C24"/>
<path d="M68.5786 25.6851C67.1511 25.6851 65.8799 25.3722 64.7653 24.7464C63.6702 24.1011 62.8097 23.2113 62.1839 22.0771C61.5582 20.9429 61.2453 19.6229 61.2453 18.1171C61.2453 16.5918 61.5484 15.2522 62.1546 14.0984C62.7804 12.9446 63.6408 12.0451 64.7359 11.3998C65.8506 10.7544 67.1413 10.4318 68.6079 10.4318C70.0355 10.4318 71.2773 10.7544 72.3333 11.3998C73.3893 12.0255 74.2106 12.8664 74.7973 13.9224C75.3839 14.9784 75.6773 16.142 75.6773 17.4131C75.6773 17.6086 75.6675 17.8238 75.6479 18.0584C75.6479 18.2735 75.6382 18.518 75.6186 18.7918H64.2959C64.3937 20.1998 64.8533 21.2753 65.6746 22.0184C66.5155 22.742 67.4835 23.1038 68.5786 23.1038C69.4586 23.1038 70.1919 22.9082 70.7786 22.5171C71.3848 22.1064 71.8346 21.5589 72.1279 20.8744H75.2373C74.8462 22.2433 74.0639 23.3873 72.8906 24.3064C71.7368 25.2255 70.2995 25.6851 68.5786 25.6851ZM68.5786 12.9838C67.5422 12.9838 66.623 13.2966 65.8213 13.9224C65.0195 14.5286 64.5306 15.4478 64.3546 16.6798H72.5679C72.5093 15.5455 72.1084 14.646 71.3653 13.9811C70.6222 13.3162 69.6933 12.9838 68.5786 12.9838Z" fill="#141C24"/>
<path d="M76.6361 25.3331L81.7988 18.0584L76.6361 10.7838H79.9508L83.8521 16.3571L87.7241 10.7838H91.0681L85.9054 18.0584L91.0681 25.3331H87.7241L83.8521 19.7598L79.9508 25.3331H76.6361Z" fill="#141C24"/>
<path d="M98.3263 25.6851C97.0943 25.6851 96.0774 25.4798 95.2756 25.0691C94.4738 24.6584 93.8774 24.1206 93.4863 23.4558C93.0952 22.7713 92.8996 22.0282 92.8996 21.2264C92.8996 19.8184 93.4472 18.7038 94.5423 17.8824C95.6374 17.0611 97.2018 16.6504 99.2356 16.6504H103.049V16.3864C103.049 15.2522 102.736 14.4015 102.11 13.8344C101.504 13.2673 100.712 12.9838 99.7343 12.9838C98.8738 12.9838 98.1209 13.1989 97.4756 13.6291C96.8498 14.0398 96.4685 14.6558 96.3316 15.4771H93.2223C93.32 14.4211 93.6721 13.5215 94.2783 12.7784C94.904 12.0158 95.6863 11.4389 96.6249 11.0478C97.5832 10.6371 98.6294 10.4318 99.7636 10.4318C101.797 10.4318 103.372 10.9695 104.486 12.0451C105.601 13.1011 106.158 14.5482 106.158 16.3864V25.3331H103.46L103.196 22.8398C102.785 23.6415 102.188 24.3162 101.406 24.8638C100.624 25.4113 99.5974 25.6851 98.3263 25.6851ZM98.9423 23.1624C99.7832 23.1624 100.487 22.9669 101.054 22.5758C101.641 22.1651 102.091 21.6273 102.404 20.9624C102.736 20.2975 102.941 19.5642 103.02 18.7624H99.5583C98.3263 18.7624 97.4463 18.9775 96.9183 19.4078C96.4098 19.838 96.1556 20.3758 96.1556 21.0211C96.1556 21.686 96.4001 22.214 96.8889 22.6051C97.3974 22.9766 98.0818 23.1624 98.9423 23.1624Z" fill="#141C24"/>
<path d="M119.053 25.6851C117.019 25.6851 115.259 25.2451 113.773 24.3651C112.306 23.4655 111.172 22.2238 110.37 20.6398C109.569 19.0362 109.168 17.1882 109.168 15.0958C109.168 12.9838 109.569 11.1358 110.37 9.55175C111.172 7.9482 112.306 6.69664 113.773 5.79709C115.259 4.89753 117.019 4.44775 119.053 4.44775C121.458 4.44775 123.424 5.03442 124.949 6.20775C126.474 7.38109 127.442 9.02375 127.853 11.1358H124.392C124.118 9.94287 123.531 8.99442 122.632 8.29042C121.732 7.58642 120.529 7.23442 119.024 7.23442C116.97 7.23442 115.347 7.93842 114.154 9.34642C112.961 10.7349 112.365 12.6513 112.365 15.0958C112.365 17.5206 112.961 19.4273 114.154 20.8158C115.347 22.2042 116.97 22.8984 119.024 22.8984C120.529 22.8984 121.732 22.566 122.632 21.9011C123.531 21.2362 124.118 20.3269 124.392 19.1731H127.853C127.442 21.2069 126.474 22.8006 124.949 23.9544C123.424 25.1082 121.458 25.6851 119.053 25.6851Z" fill="#141C24"/>
<path d="M137.959 25.6851C136.57 25.6851 135.319 25.3722 134.204 24.7464C133.109 24.1011 132.239 23.2113 131.593 22.0771C130.948 20.9233 130.625 19.5838 130.625 18.0584C130.625 16.5331 130.948 15.2033 131.593 14.0691C132.258 12.9153 133.148 12.0255 134.263 11.3998C135.377 10.7544 136.619 10.4318 137.988 10.4318C139.377 10.4318 140.618 10.7544 141.713 11.3998C142.828 12.0255 143.708 12.9153 144.353 14.0691C145.018 15.2033 145.351 16.5331 145.351 18.0584C145.351 19.5838 145.018 20.9233 144.353 22.0771C143.708 23.2113 142.828 24.1011 141.713 24.7464C140.599 25.3722 139.347 25.6851 137.959 25.6851ZM137.959 23.0158C138.702 23.0158 139.386 22.83 140.012 22.4584C140.657 22.0869 141.176 21.5393 141.567 20.8158C141.958 20.0726 142.153 19.1535 142.153 18.0584C142.153 16.9633 141.958 16.054 141.567 15.3304C141.195 14.5873 140.687 14.03 140.041 13.6584C139.416 13.2869 138.731 13.1011 137.988 13.1011C137.245 13.1011 136.551 13.2869 135.905 13.6584C135.28 14.03 134.771 14.5873 134.38 15.3304C133.989 16.054 133.793 16.9633 133.793 18.0584C133.793 19.1535 133.989 20.0726 134.38 20.8158C134.771 21.5393 135.28 22.0869 135.905 22.4584C136.531 22.83 137.216 23.0158 137.959 23.0158Z" fill="#141C24"/>
<path d="M148.713 25.3331V10.7838H151.5L151.764 13.5411C152.272 12.5829 152.976 11.83 153.876 11.2824C154.795 10.7153 155.9 10.4318 157.191 10.4318V13.6878H156.34C155.48 13.6878 154.707 13.8344 154.023 14.1278C153.358 14.4015 152.82 14.8806 152.409 15.5651C152.018 16.23 151.823 17.1589 151.823 18.3518V25.3331H148.713Z" fill="#141C24"/>
<path d="M166.261 25.6851C164.833 25.6851 163.562 25.3722 162.448 24.7464C161.352 24.1011 160.492 23.2113 159.866 22.0771C159.24 20.9429 158.928 19.6229 158.928 18.1171C158.928 16.5918 159.231 15.2522 159.837 14.0984C160.463 12.9446 161.323 12.0451 162.418 11.3998C163.533 10.7544 164.824 10.4318 166.29 10.4318C167.718 10.4318 168.96 10.7544 170.016 11.3998C171.072 12.0255 171.893 12.8664 172.48 13.9224C173.066 14.9784 173.36 16.142 173.36 17.4131C173.36 17.6086 173.35 17.8238 173.33 18.0584C173.33 18.2735 173.32 18.518 173.301 18.7918H161.978C162.076 20.1998 162.536 21.2753 163.357 22.0184C164.198 22.742 165.166 23.1038 166.261 23.1038C167.141 23.1038 167.874 22.9082 168.461 22.5171C169.067 22.1064 169.517 21.5589 169.81 20.8744H172.92C172.528 22.2433 171.746 23.3873 170.573 24.3064C169.419 25.2255 167.982 25.6851 166.261 25.6851ZM166.261 12.9838C165.224 12.9838 164.305 13.2966 163.504 13.9224C162.702 14.5286 162.213 15.4478 162.037 16.6798H170.25C170.192 15.5455 169.791 14.646 169.048 13.9811C168.304 13.3162 167.376 12.9838 166.261 12.9838Z" fill="#141C24"/>
<defs>
<linearGradient id="paint0_linear_101_179" x1="0.45929" y1="32" x2="37.0417" y2="25.4001" gradientUnits="userSpaceOnUse">
<stop stop-color="#E31C40"/>
<stop offset="1" stop-color="#F64C4C"/>
</linearGradient>
<linearGradient id="paint1_linear_101_179" x1="0.45929" y1="32" x2="37.0417" y2="25.4001" gradientUnits="userSpaceOnUse">
<stop stop-color="#E31C40"/>
<stop offset="1" stop-color="#F64C4C"/>
</linearGradient>
</defs>
</svg>
