<svg width="164" height="32" viewBox="0 0 164 32" fill="none" xmlns="http://www.w3.org/2000/svg">
<path d="M18.667 0H13.3337V9.56276L6.57164 2.80073L2.8004 6.57196L9.56169 13.3332H0V18.6666H9.5625L2.80094 25.4281L6.57218 29.1994L13.3337 22.4379V32H18.667V22.4386L25.4278 29.1994L29.1991 25.4281L22.4375 18.6666H32V13.3332H22.4383L29.1996 6.57196L25.4284 2.80073L18.667 9.56209V0Z" fill="#FFB31A"/>
<path d="M57.2188 4.85417V26.1875H54.2604L43.4167 10.5417H43.2188V26.1875H40V4.85417H42.9792L53.8333 20.5208H54.0312V4.85417H57.2188Z" fill="#141C24"/>
<path d="M68.4036 26.5104C66.9036 26.5104 65.5946 26.1667 64.4766 25.4792C63.3585 24.7917 62.4905 23.8299 61.8724 22.5937C61.2543 21.3576 60.9453 19.9132 60.9453 18.2604C60.9453 16.6007 61.2543 15.1493 61.8724 13.9062C62.4905 12.6632 63.3585 11.6979 64.4766 11.0104C65.5946 10.3229 66.9036 9.97917 68.4036 9.97917C69.9036 9.97917 71.2127 10.3229 72.3307 11.0104C73.4488 11.6979 74.3168 12.6632 74.9349 13.9062C75.553 15.1493 75.862 16.6007 75.862 18.2604C75.862 19.9132 75.553 21.3576 74.9349 22.5937C74.3168 23.8299 73.4488 24.7917 72.3307 25.4792C71.2127 26.1667 69.9036 26.5104 68.4036 26.5104ZM68.4141 23.8958C69.3863 23.8958 70.1918 23.6389 70.8307 23.125C71.4696 22.6111 71.9418 21.9271 72.2474 21.0729C72.5599 20.2187 72.7161 19.2778 72.7161 18.25C72.7161 17.2292 72.5599 16.2917 72.2474 15.4375C71.9418 14.5764 71.4696 13.8854 70.8307 13.3646C70.1918 12.8438 69.3863 12.5833 68.4141 12.5833C67.4349 12.5833 66.6224 12.8438 65.9766 13.3646C65.3377 13.8854 64.862 14.5764 64.5495 15.4375C64.2439 16.2917 64.0911 17.2292 64.0911 18.25C64.0911 19.2778 64.2439 20.2187 64.5495 21.0729C64.862 21.9271 65.3377 22.6111 65.9766 23.125C66.6224 23.6389 67.4349 23.8958 68.4141 23.8958Z" fill="#141C24"/>
<path d="M92.4818 10.1875L86.6797 26.1875H83.3464L77.5339 10.1875H80.8776L84.9297 22.5H85.0964L89.138 10.1875H92.4818Z" fill="#141C24"/>
<path d="M95.4089 26.1875V10.1875H98.5234V26.1875H95.4089ZM96.9818 7.71875C96.4401 7.71875 95.9748 7.53819 95.5859 7.17708C95.204 6.80903 95.013 6.37153 95.013 5.86458C95.013 5.35069 95.204 4.91319 95.5859 4.55208C95.9748 4.18403 96.4401 4 96.9818 4C97.5234 4 97.9852 4.18403 98.3672 4.55208C98.7561 4.91319 98.9505 5.35069 98.9505 5.86458C98.9505 6.37153 98.7561 6.80903 98.3672 7.17708C97.9852 7.53819 97.5234 7.71875 96.9818 7.71875Z" fill="#141C24"/>
<path d="M109.609 26.5104C108.033 26.5104 106.675 26.1736 105.536 25.5C104.405 24.8194 103.53 23.8646 102.911 22.6354C102.3 21.3993 101.995 19.9514 101.995 18.2917C101.995 16.6528 102.3 15.2083 102.911 13.9583C103.53 12.7083 104.391 11.7326 105.495 11.0312C106.606 10.3299 107.905 9.97917 109.391 9.97917C110.293 9.97917 111.168 10.1285 112.016 10.4271C112.863 10.7257 113.623 11.1944 114.297 11.8333C114.97 12.4722 115.502 13.3021 115.891 14.3229C116.28 15.3368 116.474 16.5694 116.474 18.0208V19.125H103.755V16.7917H113.422C113.422 15.9722 113.255 15.2465 112.922 14.6146C112.589 13.9757 112.12 13.4722 111.516 13.1042C110.918 12.7361 110.217 12.5521 109.411 12.5521C108.536 12.5521 107.773 12.7674 107.12 13.1979C106.474 13.6215 105.974 14.1771 105.62 14.8646C105.273 15.5451 105.099 16.2847 105.099 17.0833V18.9062C105.099 19.9757 105.286 20.8854 105.661 21.6354C106.043 22.3854 106.575 22.9583 107.255 23.3542C107.936 23.7431 108.731 23.9375 109.641 23.9375C110.231 23.9375 110.769 23.8542 111.255 23.6875C111.741 23.5139 112.161 23.2569 112.516 22.9167C112.87 22.5764 113.141 22.1562 113.328 21.6562L116.276 22.1875C116.04 23.0556 115.616 23.816 115.005 24.4687C114.401 25.1146 113.641 25.6181 112.724 25.9792C111.814 26.3333 110.776 26.5104 109.609 26.5104Z" fill="#141C24"/>
<path d="M122.016 10.1875L125.547 16.4167L129.109 10.1875H132.516L127.526 18.1875L132.557 26.1875H129.151L125.547 20.2083L121.953 26.1875H118.536L123.516 18.1875L118.599 10.1875H122.016Z" fill="#141C24"/>
<path d="M140.341 26.5417C139.327 26.5417 138.411 26.3542 137.591 25.9792C136.772 25.5972 136.122 25.0451 135.643 24.3229C135.171 23.6007 134.935 22.7153 134.935 21.6667C134.935 20.7639 135.109 20.0208 135.456 19.4375C135.803 18.8542 136.272 18.3924 136.862 18.0521C137.452 17.7118 138.112 17.4549 138.841 17.2812C139.57 17.1076 140.313 16.9757 141.07 16.8854C142.029 16.7743 142.806 16.684 143.404 16.6146C144.001 16.5382 144.435 16.4167 144.706 16.25C144.977 16.0833 145.112 15.8125 145.112 15.4375V15.3646C145.112 14.4549 144.855 13.75 144.341 13.25C143.834 12.75 143.077 12.5 142.07 12.5C141.022 12.5 140.195 12.7326 139.591 13.1979C138.994 13.6562 138.581 14.1667 138.352 14.7292L135.424 14.0625C135.772 13.0903 136.279 12.3056 136.945 11.7083C137.619 11.1042 138.393 10.6667 139.268 10.3958C140.143 10.1181 141.063 9.97917 142.029 9.97917C142.668 9.97917 143.345 10.0556 144.06 10.2083C144.782 10.3542 145.456 10.625 146.081 11.0208C146.713 11.4167 147.23 11.9826 147.633 12.7188C148.036 13.4479 148.237 14.3958 148.237 15.5625V26.1875H145.195V24H145.07C144.869 24.4028 144.567 24.7986 144.164 25.1875C143.761 25.5764 143.244 25.8993 142.612 26.1562C141.98 26.4132 141.223 26.5417 140.341 26.5417ZM141.018 24.0417C141.879 24.0417 142.615 23.8715 143.227 23.5312C143.845 23.191 144.313 22.7465 144.633 22.1979C144.959 21.6424 145.122 21.0486 145.122 20.4167V18.3542C145.011 18.4653 144.796 18.5694 144.477 18.6667C144.164 18.7569 143.806 18.8368 143.404 18.9062C143.001 18.9687 142.609 19.0278 142.227 19.0833C141.845 19.1319 141.525 19.1736 141.268 19.2083C140.664 19.2847 140.112 19.4132 139.612 19.5937C139.119 19.7743 138.723 20.0347 138.424 20.375C138.133 20.7083 137.987 21.1528 137.987 21.7083C137.987 22.4792 138.272 23.0625 138.841 23.4583C139.411 23.8472 140.136 24.0417 141.018 24.0417Z" fill="#141C24"/>
<path d="M152.385 26.1875V10.1875H155.396V12.7292H155.562C155.854 11.8681 156.368 11.191 157.104 10.6979C157.847 10.1979 158.688 9.94792 159.625 9.94792C159.819 9.94792 160.049 9.95486 160.312 9.96875C160.583 9.98264 160.795 10 160.948 10.0208V13C160.823 12.9653 160.601 12.9271 160.281 12.8854C159.962 12.8368 159.642 12.8125 159.323 12.8125C158.587 12.8125 157.931 12.9688 157.354 13.2812C156.785 13.5868 156.333 14.0139 156 14.5625C155.667 15.1042 155.5 15.7222 155.5 16.4167V26.1875H152.385Z" fill="#141C24"/>
</svg>
