<svg width="135" height="11" viewBox="0 0 135 11" fill="none" xmlns="http://www.w3.org/2000/svg">
<line opacity="0.2" y1="-0.5" x2="12.8062" y2="-0.5" transform="matrix(-0.624695 0.780869 -0.834165 -0.551514 8.5 0)" stroke="white"/>
<line opacity="0.2" y1="-0.5" x2="12.8062" y2="-0.5" transform="matrix(-0.624695 0.780869 -0.834165 -0.551514 13.5 0)" stroke="white"/>
<line opacity="0.2" y1="-0.5" x2="12.8062" y2="-0.5" transform="matrix(-0.624695 0.780869 -0.834165 -0.551514 18.5 0)" stroke="white"/>
<line opacity="0.2" y1="-0.5" x2="12.8062" y2="-0.5" transform="matrix(-0.624695 0.780869 -0.834165 -0.551514 23.5 0)" stroke="white"/>
<line opacity="0.2" y1="-0.5" x2="12.8062" y2="-0.5" transform="matrix(-0.624695 0.780869 -0.834165 -0.551514 28.5 0)" stroke="white"/>
<line opacity="0.2" y1="-0.5" x2="12.8062" y2="-0.5" transform="matrix(-0.624695 0.780869 -0.834165 -0.551514 33.5 0)" stroke="white"/>
<line opacity="0.2" y1="-0.5" x2="12.8062" y2="-0.5" transform="matrix(-0.624695 0.780869 -0.834165 -0.551514 38.5 0)" stroke="white"/>
<line opacity="0.2" y1="-0.5" x2="12.8062" y2="-0.5" transform="matrix(-0.624695 0.780869 -0.834165 -0.551514 43.5 0)" stroke="white"/>
<line opacity="0.2" y1="-0.5" x2="12.8062" y2="-0.5" transform="matrix(-0.624695 0.780869 -0.834165 -0.551514 48.5 0)" stroke="white"/>
<line opacity="0.2" y1="-0.5" x2="12.8062" y2="-0.5" transform="matrix(-0.624695 0.780869 -0.834165 -0.551514 53.5 0)" stroke="white"/>
<line opacity="0.2" y1="-0.5" x2="12.8062" y2="-0.5" transform="matrix(-0.624695 0.780869 -0.834165 -0.551514 58.5 0)" stroke="white"/>
<line opacity="0.2" y1="-0.5" x2="12.8062" y2="-0.5" transform="matrix(-0.624695 0.780869 -0.834165 -0.551514 63.5 0)" stroke="white"/>
<line opacity="0.2" y1="-0.5" x2="12.8062" y2="-0.5" transform="matrix(-0.624695 0.780869 -0.834165 -0.551514 68.5 0)" stroke="white"/>
<line opacity="0.2" y1="-0.5" x2="12.8062" y2="-0.5" transform="matrix(-0.624695 0.780869 -0.834165 -0.551514 73.5 0)" stroke="white"/>
<line opacity="0.2" y1="-0.5" x2="12.8062" y2="-0.5" transform="matrix(-0.624695 0.780869 -0.834165 -0.551514 78.5 0)" stroke="white"/>
<line opacity="0.2" y1="-0.5" x2="12.8062" y2="-0.5" transform="matrix(-0.624695 0.780869 -0.834165 -0.551514 83.5 0)" stroke="white"/>
<line opacity="0.2" y1="-0.5" x2="12.8062" y2="-0.5" transform="matrix(-0.624695 0.780869 -0.834165 -0.551514 88.5 0)" stroke="white"/>
<line opacity="0.2" y1="-0.5" x2="12.8062" y2="-0.5" transform="matrix(-0.624695 0.780869 -0.834165 -0.551514 93.5 0)" stroke="white"/>
<line opacity="0.2" y1="-0.5" x2="12.8062" y2="-0.5" transform="matrix(-0.624695 0.780869 -0.834165 -0.551514 98.5 0)" stroke="white"/>
<line opacity="0.2" y1="-0.5" x2="12.8062" y2="-0.5" transform="matrix(-0.624695 0.780869 -0.834165 -0.551514 103.5 0)" stroke="white"/>
<line opacity="0.2" y1="-0.5" x2="12.8062" y2="-0.5" transform="matrix(-0.624695 0.780869 -0.834165 -0.551514 108.5 0)" stroke="white"/>
<line opacity="0.2" y1="-0.5" x2="12.8062" y2="-0.5" transform="matrix(-0.624695 0.780869 -0.834165 -0.551514 113.5 0)" stroke="white"/>
<line opacity="0.2" y1="-0.5" x2="12.8062" y2="-0.5" transform="matrix(-0.624695 0.780869 -0.834165 -0.551514 118.5 0)" stroke="white"/>
<line opacity="0.2" y1="-0.5" x2="12.8062" y2="-0.5" transform="matrix(-0.624695 0.780869 -0.834165 -0.551514 123.5 0)" stroke="white"/>
<line opacity="0.2" y1="-0.5" x2="12.8062" y2="-0.5" transform="matrix(-0.624695 0.780869 -0.834165 -0.551514 128.5 0)" stroke="white"/>
<line opacity="0.2" y1="-0.5" x2="12.8062" y2="-0.5" transform="matrix(-0.624695 0.780869 -0.834165 -0.551514 133.5 0)" stroke="white"/>
</svg>
