<svg width="191" height="32" viewBox="0 0 191 32" fill="none" xmlns="http://www.w3.org/2000/svg">
<path d="M15.7407 24.589C15.7407 28.682 12.4226 32 8.32962 32C4.23662 32 0.918579 28.682 0.918579 24.589C0.918579 20.496 4.23662 17.1779 8.32962 17.1779C12.4226 17.1779 15.7407 20.496 15.7407 24.589Z" fill="url(#paint0_linear_101_176)"/>
<path d="M32.9186 7.41104C32.9186 11.504 29.6005 14.8221 25.5075 14.8221C21.4145 14.8221 18.0965 11.504 18.0965 7.41104C18.0965 3.31804 21.4145 0 25.5075 0C29.6005 0 32.9186 3.31804 32.9186 7.41104Z" fill="url(#paint1_linear_101_176)"/>
<path d="M15.7407 7.41104C15.7407 11.504 12.4226 14.8221 8.32962 14.8221C4.23662 14.8221 0.918579 11.504 0.918579 7.41104C0.918579 3.31804 4.23662 0 8.32962 0C12.4226 0 15.7407 3.31804 15.7407 7.41104Z" fill="url(#paint2_linear_101_176)"/>
<path d="M32.9186 24.589C32.9186 28.682 29.6005 32 25.5075 32C21.4145 32 18.0965 28.682 18.0965 24.589C18.0965 20.496 21.4145 17.1779 25.5075 17.1779C29.6005 17.1779 32.9186 20.496 32.9186 24.589Z" fill="url(#paint3_linear_101_176)"/>
<path d="M48.6491 25.568C47.1042 25.568 45.6082 25.3333 44.1611 24.864C42.7335 24.3751 41.6091 23.7493 40.7877 22.9867L41.8731 20.6987C42.6553 21.4027 43.6526 21.9796 44.8651 22.4293C46.0971 22.8596 47.3584 23.0747 48.6491 23.0747C50.3504 23.0747 51.6215 22.7911 52.4624 22.224C53.3033 21.6373 53.7237 20.8649 53.7237 19.9067C53.7237 19.2027 53.4891 18.6356 53.0197 18.2053C52.5699 17.7556 52.0028 17.4133 51.3184 17.1787C50.6535 16.944 49.7051 16.68 48.4731 16.3867C46.9282 16.0151 45.6766 15.6435 44.7184 15.272C43.7797 14.9004 42.9682 14.3333 42.2837 13.5707C41.6188 12.7884 41.2864 11.7422 41.2864 10.432C41.2864 9.33688 41.5699 8.34933 42.1371 7.46933C42.7237 6.58933 43.6037 5.88533 44.7771 5.35733C45.9504 4.82933 47.4073 4.56533 49.1477 4.56533C50.3602 4.56533 51.5531 4.72177 52.7264 5.03466C53.8997 5.34755 54.9068 5.79733 55.7477 6.38399L54.7797 8.73066C53.9193 8.1831 53.0002 7.77244 52.0224 7.49866C51.0446 7.20533 50.0864 7.05866 49.1477 7.05866C47.4855 7.05866 46.2339 7.36177 45.3931 7.96799C44.5717 8.57422 44.1611 9.35644 44.1611 10.3147C44.1611 11.0187 44.3957 11.5955 44.8651 12.0453C45.3344 12.4755 45.9113 12.8178 46.5957 13.072C47.2997 13.3067 48.2482 13.5609 49.4411 13.8347C50.9859 14.2062 52.2277 14.5778 53.1664 14.9493C54.1051 15.3209 54.9068 15.888 55.5717 16.6507C56.2562 17.4133 56.5984 18.44 56.5984 19.7307C56.5984 20.8062 56.3051 21.7938 55.7184 22.6933C55.1317 23.5733 54.2419 24.2773 53.0491 24.8053C51.8562 25.3138 50.3895 25.568 48.6491 25.568Z" fill="#141C24"/>
<path d="M66.5158 18.088L63.2891 21.08V25.3333H60.4731V3.56799H63.2891V17.5307L71.7665 9.78666H75.1691L68.6278 16.2107L75.8145 25.3333H72.3531L66.5158 18.088Z" fill="#141C24"/>
<path d="M91.4753 9.78666L83.9366 26.888C83.2717 28.472 82.4895 29.5867 81.5899 30.232C80.7099 30.8773 79.6441 31.2 78.3926 31.2C77.6299 31.2 76.8868 31.0729 76.1633 30.8187C75.4593 30.584 74.8726 30.232 74.4033 29.7627L75.6059 27.6507C76.4077 28.4133 77.3366 28.7947 78.3926 28.7947C79.077 28.7947 79.6441 28.6089 80.0939 28.2373C80.5633 27.8853 80.9837 27.2693 81.3553 26.3893L81.8539 25.304L74.9899 9.78666H77.9233L83.3499 22.224L88.7179 9.78666H91.4753Z" fill="#141C24"/>
<path d="M107.724 17.648C107.724 17.8631 107.705 18.1467 107.666 18.4987H95.0523C95.2283 19.8675 95.8248 20.9724 96.8417 21.8133C97.8781 22.6347 99.159 23.0453 100.684 23.0453C102.542 23.0453 104.038 22.4195 105.172 21.168L106.727 22.9867C106.023 23.808 105.143 24.4338 104.087 24.864C103.051 25.2942 101.887 25.5093 100.596 25.5093C98.9537 25.5093 97.4968 25.1769 96.2257 24.512C94.9545 23.8276 93.967 22.8791 93.263 21.6667C92.5785 20.4542 92.2363 19.0853 92.2363 17.56C92.2363 16.0542 92.5688 14.6951 93.2337 13.4827C93.9181 12.2702 94.847 11.3315 96.0203 10.6667C97.2132 9.98222 98.5528 9.63999 100.039 9.63999C101.525 9.63999 102.845 9.98222 103.999 10.6667C105.172 11.3315 106.082 12.2702 106.727 13.4827C107.392 14.6951 107.724 16.0835 107.724 17.648ZM100.039 12.016C98.6897 12.016 97.5554 12.4267 96.6363 13.248C95.7368 14.0693 95.2088 15.1449 95.0523 16.4747H105.026C104.869 15.1644 104.331 14.0987 103.412 13.2773C102.513 12.4364 101.388 12.016 100.039 12.016Z" fill="#141C24"/>
<path d="M140.483 4.79999L133.619 25.3333H130.539L124.936 8.93599L119.334 25.3333H116.195L109.331 4.79999H112.352L117.896 21.4907L123.675 4.79999H126.374L132.035 21.5787L137.696 4.79999H140.483Z" fill="#141C24"/>
<path d="M148.147 9.63999C150.299 9.63999 151.941 10.168 153.075 11.224C154.229 12.28 154.806 13.8542 154.806 15.9467V25.3333H152.137V23.28C151.667 24.0035 150.993 24.5609 150.113 24.952C149.252 25.3236 148.226 25.5093 147.033 25.5093C145.292 25.5093 143.894 25.0889 142.838 24.248C141.802 23.4071 141.283 22.3022 141.283 20.9333C141.283 19.5644 141.782 18.4693 142.779 17.648C143.777 16.8071 145.361 16.3867 147.531 16.3867H151.99V15.8293C151.99 14.6169 151.638 13.688 150.934 13.0427C150.23 12.3973 149.194 12.0747 147.825 12.0747C146.906 12.0747 146.006 12.2311 145.126 12.544C144.246 12.8373 143.503 13.2382 142.897 13.7467L141.723 11.6347C142.525 10.9893 143.483 10.5004 144.598 10.168C145.713 9.81599 146.896 9.63999 148.147 9.63999ZM147.502 23.3387C148.578 23.3387 149.507 23.104 150.289 22.6347C151.071 22.1458 151.638 21.4613 151.99 20.5813V18.4107H147.649C145.263 18.4107 144.07 19.2124 144.07 20.816C144.07 21.5982 144.373 22.2142 144.979 22.664C145.586 23.1138 146.427 23.3387 147.502 23.3387Z" fill="#141C24"/>
<path d="M173.488 9.78666L166.683 25.3333H163.808L157.003 9.78666H159.936L165.275 22.2533L170.731 9.78666H173.488Z" fill="#141C24"/>
<path d="M189.737 17.648C189.737 17.8631 189.718 18.1467 189.679 18.4987H177.065C177.241 19.8675 177.838 20.9724 178.855 21.8133C179.891 22.6347 181.172 23.0453 182.697 23.0453C184.555 23.0453 186.051 22.4195 187.185 21.168L188.74 22.9867C188.036 23.808 187.156 24.4338 186.1 24.864C185.064 25.2942 183.9 25.5093 182.609 25.5093C180.967 25.5093 179.51 25.1769 178.239 24.512C176.968 23.8276 175.98 22.8791 175.276 21.6667C174.592 20.4542 174.249 19.0853 174.249 17.56C174.249 16.0542 174.582 14.6951 175.247 13.4827C175.931 12.2702 176.86 11.3315 178.033 10.6667C179.226 9.98222 180.566 9.63999 182.052 9.63999C183.538 9.63999 184.858 9.98222 186.012 10.6667C187.185 11.3315 188.095 12.2702 188.74 13.4827C189.405 14.6951 189.737 16.0835 189.737 17.648ZM182.052 12.016C180.703 12.016 179.568 12.4267 178.649 13.248C177.75 14.0693 177.222 15.1449 177.065 16.4747H187.039C186.882 15.1644 186.344 14.0987 185.425 13.2773C184.526 12.4364 183.401 12.016 182.052 12.016Z" fill="#141C24"/>
<defs>
<linearGradient id="paint0_linear_101_176" x1="0.918579" y1="32" x2="37.5011" y2="25.4001" gradientUnits="userSpaceOnUse">
<stop stop-color="#1975FF"/>
<stop offset="1" stop-color="#33A9FF"/>
</linearGradient>
<linearGradient id="paint1_linear_101_176" x1="0.918579" y1="32" x2="37.5011" y2="25.4001" gradientUnits="userSpaceOnUse">
<stop stop-color="#1975FF"/>
<stop offset="1" stop-color="#33A9FF"/>
</linearGradient>
<linearGradient id="paint2_linear_101_176" x1="0.918579" y1="32" x2="37.5011" y2="25.4001" gradientUnits="userSpaceOnUse">
<stop stop-color="#1975FF"/>
<stop offset="1" stop-color="#33A9FF"/>
</linearGradient>
<linearGradient id="paint3_linear_101_176" x1="0.918579" y1="32" x2="37.5011" y2="25.4001" gradientUnits="userSpaceOnUse">
<stop stop-color="#1975FF"/>
<stop offset="1" stop-color="#33A9FF"/>
</linearGradient>
</defs>
</svg>
