<svg width="20" height="20" viewBox="0 0 20 20" fill="none" xmlns="http://www.w3.org/2000/svg">
<path d="M8.61084 8.22661L4.54569 8.84347L4.47369 8.85881C4.36469 8.88909 4.26533 8.94911 4.18574 9.03273C4.10616 9.11635 4.0492 9.22058 4.0207 9.33477C3.99219 9.44896 3.99315 9.56903 4.02348 9.68271C4.05381 9.79639 4.11242 9.8996 4.19333 9.98182L7.13834 12.9821L6.44382 17.22L6.43554 17.2934C6.42887 17.4114 6.45227 17.5291 6.50337 17.6345C6.55446 17.7399 6.63139 17.8292 6.7263 17.8933C6.82121 17.9573 6.93068 17.9938 7.04349 17.999C7.15631 18.0042 7.26843 17.978 7.36836 17.9229L11.0041 15.9223L14.6315 17.9229L14.6952 17.9536C14.8004 17.997 14.9147 18.0103 15.0264 17.9921C15.1381 17.974 15.2432 17.9251 15.3308 17.8504C15.4185 17.7758 15.4856 17.678 15.5253 17.5672C15.565 17.4565 15.5758 17.3366 15.5567 17.22L14.8615 12.9821L17.8078 9.98115L17.8575 9.92447C17.9285 9.83295 17.975 9.72337 17.9924 9.6069C18.0097 9.49043 17.9973 9.37122 17.9563 9.26142C17.9153 9.15162 17.8472 9.05516 17.759 8.98185C17.6708 8.90855 17.5656 8.86103 17.4542 8.84414L13.389 8.22661L11.5718 4.37209C11.5192 4.26042 11.4378 4.16637 11.3368 4.10061C11.2358 4.03485 11.1192 4 11.0002 4C10.8813 4 10.7647 4.03485 10.6637 4.10061C10.5627 4.16637 10.4813 4.26042 10.4287 4.37209L8.61084 8.22661Z" fill="#1975FF"/>
</svg>
