<svg width="21" height="20" viewBox="0 0 21 20" fill="none" xmlns="http://www.w3.org/2000/svg">
<path d="M4.66667 3.33325H8L9.66667 7.49992L7.58333 8.74992C8.4758 10.5595 9.94039 12.0241 11.75 12.9166L13 10.8333L17.1667 12.4999V15.8333C17.1667 16.2753 16.9911 16.6992 16.6785 17.0118C16.366 17.3243 15.942 17.4999 15.5 17.4999C12.2494 17.3024 9.18346 15.922 6.88069 13.6192C4.57792 11.3165 3.19754 8.25053 3 4.99992C3 4.55789 3.17559 4.13397 3.48816 3.82141C3.80072 3.50885 4.22464 3.33325 4.66667 3.33325Z" stroke="#575D6A" stroke-width="1.4" stroke-linecap="round" stroke-linejoin="round"/>
<path d="M13 5.83325C13.442 5.83325 13.866 6.00885 14.1785 6.32141C14.4911 6.63397 14.6667 7.05789 14.6667 7.49992" stroke="#575D6A" stroke-width="1.4" stroke-linecap="round" stroke-linejoin="round"/>
<path d="M13 2.5C14.3261 2.5 15.5979 3.02678 16.5355 3.96447C17.4732 4.90215 18 6.17392 18 7.5" stroke="#575D6A" stroke-width="1.4" stroke-linecap="round" stroke-linejoin="round"/>
</svg>
