<svg width="366" height="265" viewBox="0 0 366 265" fill="none" xmlns="http://www.w3.org/2000/svg">
<g clip-path="url(#clip0_101_424)">
<path d="M213.195 46.7164C220.054 46.7164 225.615 41.1806 225.615 34.3518C225.615 27.5231 220.054 21.9873 213.195 21.9873C206.335 21.9873 200.774 27.5231 200.774 34.3518C200.774 41.1806 206.335 46.7164 213.195 46.7164Z" fill="#F2F2F2"/>
<path d="M328.653 235.596C348.661 220.392 358.217 194.843 352.234 170.47C352.086 169.864 351.929 169.26 351.764 168.657C347.798 154.19 337.985 140.44 323.684 135.817C311.676 131.936 298.569 134.921 286.042 133.377C261.45 130.347 242.385 110.495 228.97 89.7089C215.555 68.9231 205.245 45.6564 187.419 28.4844C158.037 0.179177 110.107 -5.91496 73.6765 12.5096C37.2464 30.9343 14.0408 71.8108 15.0305 112.549C16.0202 153.288 40.2598 192.237 75.4618 212.902C88.3936 220.493 103.35 225.871 118.236 223.989C131.151 222.357 142.887 215.432 155.741 213.377C175.952 210.145 196.034 219.262 213.515 229.886C230.996 240.511 247.881 253.104 267.745 258.029C287.034 262.812 310.93 249.065 328.653 235.596Z" fill="#D5E6FF"/>
<path d="M283.018 25.6175C282.613 25.3489 282.204 25.0942 281.799 24.8349C270.1 17.3866 257.562 11.3357 244.442 6.80725L241.399 48.5861H222.114V0.708509C220.9 0.458447 219.676 0.222277 218.453 0V48.5861H195.534C182.917 48.5861 170.817 43.5966 161.896 34.715C152.974 25.8335 147.962 13.7876 147.962 1.22721C146.734 1.49117 145.515 1.7736 144.297 2.0746V48.5862H125.629L122.732 8.74755C109.249 13.8953 96.4485 20.6648 84.616 28.9053C84.4113 29.0443 84.2067 29.1878 84.0066 29.3267C82.9786 30.0445 81.9646 30.7762 80.9552 31.5171V190.904H135.97L134.998 177.498L129.648 103.892H237.376L232.026 177.498L231.054 190.904H285.46V27.229C284.65 26.6826 283.836 26.1454 283.018 25.6175ZM144.297 91.7358H128.765L125.895 52.2352H144.297V91.7358ZM218.453 91.7358H192.367V90.9532C192.367 90.5769 192.292 90.2044 192.147 89.8569C192.003 89.5094 191.79 89.1937 191.523 88.9279C191.255 88.6621 190.938 88.4514 190.589 88.3078C190.239 88.1643 189.865 88.0907 189.487 88.0913H178.146C177.769 88.0912 177.395 88.1651 177.046 88.3089C176.697 88.4527 176.38 88.6634 176.113 88.9292C175.846 89.195 175.635 89.5105 175.49 89.8578C175.346 90.2051 175.272 90.5773 175.272 90.9532V91.7358H147.962V52.2352H218.453V91.7358ZM222.114 91.7358V52.2352H241.134L238.264 91.7358H222.114Z" fill="#BBA4FF"/>
<path d="M-3.05176e-05 201.111C4.04096 205.877 8.41176 210.357 13.0804 214.517L352.92 214.98C357.588 210.82 361.959 206.34 366 201.574L-3.05176e-05 201.111Z" fill="#919191"/>
<path d="M230.456 158.183V197.871C230.456 198.377 230.658 198.862 231.018 199.219C231.377 199.577 231.864 199.778 232.372 199.779H291.45C291.958 199.778 292.445 199.577 292.804 199.219C293.164 198.862 293.366 198.377 293.366 197.871V158.183C293.365 157.678 293.162 157.194 292.803 156.837C292.444 156.48 291.957 156.279 291.45 156.278H232.372C231.864 156.279 231.378 156.48 231.019 156.837C230.659 157.194 230.457 157.678 230.456 158.183Z" fill="#3F3D56"/>
<path d="M231.842 158.677V197.382C231.842 197.652 231.95 197.911 232.142 198.102C232.334 198.293 232.594 198.401 232.866 198.401H290.958C291.229 198.401 291.49 198.293 291.682 198.102C291.874 197.911 291.982 197.652 291.982 197.382V158.677C291.982 158.407 291.874 158.147 291.682 157.956C291.49 157.764 291.23 157.656 290.958 157.656H232.866C232.594 157.656 232.334 157.764 232.142 157.956C231.95 158.147 231.842 158.407 231.842 158.677Z" fill="#1975FF"/>
<path d="M229.221 205.611C229.329 205.746 229.467 205.855 229.623 205.93C229.78 206.004 229.951 206.043 230.125 206.042H293.383C293.556 206.042 293.727 206.003 293.883 205.929C294.039 205.855 294.177 205.747 294.286 205.613C294.395 205.479 294.472 205.323 294.513 205.156C294.554 204.988 294.557 204.814 294.521 204.645L293.539 200.002C293.498 199.813 293.411 199.636 293.284 199.489C293.158 199.342 292.996 199.229 292.814 199.16C292.683 199.109 292.543 199.082 292.401 199.083H231.103C230.961 199.082 230.821 199.109 230.69 199.16C230.508 199.229 230.346 199.342 230.22 199.489C230.093 199.636 230.006 199.813 229.965 200.002L228.983 204.645C228.948 204.814 228.951 204.988 228.992 205.155C229.034 205.322 229.112 205.478 229.221 205.611Z" fill="#2F2E41"/>
<path d="M290.23 201.083H291.724C291.85 201.083 291.951 200.981 291.951 200.856V200.145C291.951 200.02 291.85 199.919 291.724 199.919H290.23C290.105 199.919 290.003 200.02 290.003 200.145V200.856C290.003 200.981 290.105 201.083 290.23 201.083Z" fill="#3F3D56"/>
<path d="M286.333 201.083H287.828C287.953 201.083 288.055 200.981 288.055 200.856V200.145C288.055 200.02 287.953 199.919 287.828 199.919H286.333C286.208 199.919 286.106 200.02 286.106 200.145V200.856C286.106 200.981 286.208 201.083 286.333 201.083Z" fill="#3F3D56"/>
<path d="M282.437 201.083H283.931C284.057 201.083 284.158 200.981 284.158 200.856V200.145C284.158 200.02 284.057 199.919 283.931 199.919H282.437C282.312 199.919 282.21 200.02 282.21 200.145V200.856C282.21 200.981 282.312 201.083 282.437 201.083Z" fill="#3F3D56"/>
<path d="M278.54 201.083H280.035C280.16 201.083 280.262 200.981 280.262 200.856V200.145C280.262 200.02 280.16 199.919 280.035 199.919H278.54C278.415 199.919 278.313 200.02 278.313 200.145V200.856C278.313 200.981 278.415 201.083 278.54 201.083Z" fill="#3F3D56"/>
<path d="M274.644 201.083H276.138C276.263 201.083 276.365 200.981 276.365 200.856V200.145C276.365 200.02 276.263 199.919 276.138 199.919H274.644C274.518 199.919 274.417 200.02 274.417 200.145V200.856C274.417 200.981 274.518 201.083 274.644 201.083Z" fill="#3F3D56"/>
<path d="M270.747 201.083H272.242C272.367 201.083 272.469 200.981 272.469 200.856V200.145C272.469 200.02 272.367 199.919 272.242 199.919H270.747C270.622 199.919 270.52 200.02 270.52 200.145V200.856C270.52 200.981 270.622 201.083 270.747 201.083Z" fill="#3F3D56"/>
<path d="M266.85 201.083H268.344C268.47 201.083 268.571 200.981 268.571 200.856V200.145C268.571 200.02 268.47 199.919 268.344 199.919H266.85C266.725 199.919 266.623 200.02 266.623 200.145V200.856C266.623 200.981 266.725 201.083 266.85 201.083Z" fill="#3F3D56"/>
<path d="M262.954 201.083H264.448C264.573 201.083 264.675 200.981 264.675 200.856V200.145C264.675 200.02 264.573 199.919 264.448 199.919H262.954C262.828 199.919 262.727 200.02 262.727 200.145V200.856C262.727 200.981 262.828 201.083 262.954 201.083Z" fill="#3F3D56"/>
<path d="M259.057 201.083H260.551C260.677 201.083 260.778 200.981 260.778 200.856V200.145C260.778 200.02 260.677 199.919 260.551 199.919H259.057C258.932 199.919 258.83 200.02 258.83 200.145V200.856C258.83 200.981 258.932 201.083 259.057 201.083Z" fill="#3F3D56"/>
<path d="M255.16 201.083H256.655C256.78 201.083 256.882 200.981 256.882 200.856V200.145C256.882 200.02 256.78 199.919 256.655 199.919H255.16C255.035 199.919 254.933 200.02 254.933 200.145V200.856C254.933 200.981 255.035 201.083 255.16 201.083Z" fill="#3F3D56"/>
<path d="M251.264 201.083H252.758C252.884 201.083 252.985 200.981 252.985 200.856V200.145C252.985 200.02 252.884 199.919 252.758 199.919H251.264C251.139 199.919 251.037 200.02 251.037 200.145V200.856C251.037 200.981 251.139 201.083 251.264 201.083Z" fill="#3F3D56"/>
<path d="M247.367 201.083H248.861C248.986 201.083 249.088 200.981 249.088 200.856V200.145C249.088 200.02 248.986 199.919 248.861 199.919H247.367C247.241 199.919 247.14 200.02 247.14 200.145V200.856C247.14 200.981 247.241 201.083 247.367 201.083Z" fill="#3F3D56"/>
<path d="M243.47 201.083H244.964C245.09 201.083 245.191 200.981 245.191 200.856V200.145C245.191 200.02 245.09 199.919 244.964 199.919H243.47C243.345 199.919 243.243 200.02 243.243 200.145V200.856C243.243 200.981 243.345 201.083 243.47 201.083Z" fill="#3F3D56"/>
<path d="M239.574 201.083H241.068C241.193 201.083 241.295 200.981 241.295 200.856V200.145C241.295 200.02 241.193 199.919 241.068 199.919H239.574C239.448 199.919 239.347 200.02 239.347 200.145V200.856C239.347 200.981 239.448 201.083 239.574 201.083Z" fill="#3F3D56"/>
<path d="M235.677 201.083H237.171C237.297 201.083 237.398 200.981 237.398 200.856V200.145C237.398 200.02 237.297 199.919 237.171 199.919H235.677C235.552 199.919 235.45 200.02 235.45 200.145V200.856C235.45 200.981 235.552 201.083 235.677 201.083Z" fill="#3F3D56"/>
<path d="M231.781 201.083H233.275C233.4 201.083 233.502 200.981 233.502 200.856V200.145C233.502 200.02 233.4 199.919 233.275 199.919H231.781C231.655 199.919 231.554 200.02 231.554 200.145V200.856C231.554 200.981 231.655 201.083 231.781 201.083Z" fill="#3F3D56"/>
<path d="M290.277 203.022H291.771C291.896 203.022 291.998 202.921 291.998 202.796V202.084C291.998 201.959 291.896 201.858 291.771 201.858H290.277C290.151 201.858 290.05 201.959 290.05 202.084V202.796C290.05 202.921 290.151 203.022 290.277 203.022Z" fill="#3F3D56"/>
<path d="M286.379 203.022H287.874C287.999 203.022 288.101 202.921 288.101 202.796V202.084C288.101 201.959 287.999 201.858 287.874 201.858H286.379C286.254 201.858 286.152 201.959 286.152 202.084V202.796C286.152 202.921 286.254 203.022 286.379 203.022Z" fill="#3F3D56"/>
<path d="M282.483 203.022H283.977C284.102 203.022 284.204 202.921 284.204 202.796V202.084C284.204 201.959 284.102 201.858 283.977 201.858H282.483C282.357 201.858 282.256 201.959 282.256 202.084V202.796C282.256 202.921 282.357 203.022 282.483 203.022Z" fill="#3F3D56"/>
<path d="M278.586 203.022H280.081C280.206 203.022 280.308 202.921 280.308 202.796V202.085C280.308 201.96 280.206 201.858 280.081 201.858H278.586C278.461 201.858 278.359 201.96 278.359 202.085V202.796C278.359 202.921 278.461 203.022 278.586 203.022Z" fill="#3F3D56"/>
<path d="M274.69 203.022H276.184C276.309 203.022 276.411 202.921 276.411 202.796V202.085C276.411 201.96 276.309 201.858 276.184 201.858H274.69C274.564 201.858 274.463 201.96 274.463 202.085V202.796C274.463 202.921 274.564 203.022 274.69 203.022Z" fill="#3F3D56"/>
<path d="M270.793 203.022H272.288C272.413 203.022 272.515 202.921 272.515 202.796V202.084C272.515 201.959 272.413 201.858 272.288 201.858H270.793C270.668 201.858 270.566 201.959 270.566 202.084V202.796C270.566 202.921 270.668 203.022 270.793 203.022Z" fill="#3F3D56"/>
<path d="M266.897 203.022H268.391C268.516 203.022 268.618 202.921 268.618 202.796V202.084C268.618 201.959 268.516 201.858 268.391 201.858H266.897C266.771 201.858 266.67 201.959 266.67 202.084V202.796C266.67 202.921 266.771 203.022 266.897 203.022Z" fill="#3F3D56"/>
<path d="M262.999 203.022H264.494C264.619 203.022 264.721 202.921 264.721 202.796V202.084C264.721 201.959 264.619 201.858 264.494 201.858H262.999C262.874 201.858 262.772 201.959 262.772 202.084V202.796C262.772 202.921 262.874 203.022 262.999 203.022Z" fill="#3F3D56"/>
<path d="M259.103 203.022H260.597C260.723 203.022 260.824 202.921 260.824 202.796V202.085C260.824 201.96 260.723 201.858 260.597 201.858H259.103C258.978 201.858 258.876 201.96 258.876 202.085V202.796C258.876 202.921 258.978 203.022 259.103 203.022Z" fill="#3F3D56"/>
<path d="M255.206 203.022H256.701C256.826 203.022 256.928 202.921 256.928 202.796V202.085C256.928 201.96 256.826 201.858 256.701 201.858H255.206C255.081 201.858 254.979 201.96 254.979 202.085V202.796C254.979 202.921 255.081 203.022 255.206 203.022Z" fill="#3F3D56"/>
<path d="M251.31 203.022H252.804C252.929 203.022 253.031 202.921 253.031 202.796V202.085C253.031 201.96 252.929 201.858 252.804 201.858H251.31C251.184 201.858 251.083 201.96 251.083 202.085V202.796C251.083 202.921 251.184 203.022 251.31 203.022Z" fill="#3F3D56"/>
<path d="M247.414 203.022H248.908C249.033 203.022 249.135 202.921 249.135 202.796V202.084C249.135 201.959 249.033 201.858 248.908 201.858H247.414C247.288 201.858 247.186 201.959 247.186 202.084V202.796C247.186 202.921 247.288 203.022 247.414 203.022Z" fill="#3F3D56"/>
<path d="M243.516 203.022H245.01C245.136 203.022 245.237 202.921 245.237 202.796V202.084C245.237 201.959 245.136 201.858 245.01 201.858H243.516C243.391 201.858 243.289 201.959 243.289 202.084V202.796C243.289 202.921 243.391 203.022 243.516 203.022Z" fill="#3F3D56"/>
<path d="M239.62 203.022H241.114C241.239 203.022 241.341 202.921 241.341 202.796V202.084C241.341 201.959 241.239 201.858 241.114 201.858H239.62C239.494 201.858 239.392 201.959 239.392 202.084V202.796C239.392 202.921 239.494 203.022 239.62 203.022Z" fill="#3F3D56"/>
<path d="M235.723 203.022H237.217C237.343 203.022 237.444 202.921 237.444 202.796V202.085C237.444 201.96 237.343 201.858 237.217 201.858H235.723C235.598 201.858 235.496 201.96 235.496 202.085V202.796C235.496 202.921 235.598 203.022 235.723 203.022Z" fill="#3F3D56"/>
<path d="M231.826 203.022H233.321C233.446 203.022 233.548 202.921 233.548 202.796V202.085C233.548 201.96 233.446 201.858 233.321 201.858H231.826C231.701 201.858 231.599 201.96 231.599 202.085V202.796C231.599 202.921 231.701 203.022 231.826 203.022Z" fill="#3F3D56"/>
<path d="M257.934 205.35H273.067C273.192 205.35 273.294 205.248 273.294 205.124V204.412C273.294 204.287 273.192 204.186 273.067 204.186H257.934C257.809 204.186 257.707 204.287 257.707 204.412V205.124C257.707 205.248 257.809 205.35 257.934 205.35Z" fill="#3F3D56"/>
<path d="M241.901 166.123H240.579C240.178 166.123 239.853 166.447 239.853 166.846C239.853 167.245 240.178 167.569 240.579 167.569H241.901C242.303 167.569 242.628 167.245 242.628 166.846C242.628 166.447 242.303 166.123 241.901 166.123Z" fill="white"/>
<path d="M257.03 166.123H255.707C255.306 166.123 254.981 166.447 254.981 166.846C254.981 167.245 255.306 167.569 255.707 167.569H257.03C257.431 167.569 257.756 167.245 257.756 166.846C257.756 166.447 257.431 166.123 257.03 166.123Z" fill="white"/>
<path d="M261.317 166.123H259.994C259.593 166.123 259.268 166.447 259.268 166.846C259.268 167.245 259.593 167.569 259.994 167.569H261.317C261.718 167.569 262.043 167.245 262.043 166.846C262.043 166.447 261.718 166.123 261.317 166.123Z" fill="white"/>
<path d="M252.915 166.003H244.694C244.293 166.003 243.968 166.326 243.968 166.726C243.968 167.125 244.293 167.448 244.694 167.448H252.915C253.316 167.448 253.641 167.125 253.641 166.726C253.641 166.326 253.316 166.003 252.915 166.003Z" fill="white"/>
<path d="M273.087 166.003H264.866C264.465 166.003 264.14 166.327 264.14 166.726C264.14 167.125 264.465 167.449 264.866 167.449H273.087C273.488 167.449 273.813 167.125 273.813 166.726C273.813 166.327 273.488 166.003 273.087 166.003Z" fill="white"/>
<path d="M245.936 169.386H244.613C244.212 169.386 243.887 169.71 243.887 170.109C243.887 170.508 244.212 170.832 244.613 170.832H245.936C246.337 170.832 246.662 170.508 246.662 170.109C246.662 169.71 246.337 169.386 245.936 169.386Z" fill="white"/>
<path d="M261.065 169.386H259.742C259.341 169.386 259.016 169.71 259.016 170.109C259.016 170.509 259.341 170.832 259.742 170.832H261.065C261.466 170.832 261.791 170.509 261.791 170.109C261.791 169.71 261.466 169.386 261.065 169.386Z" fill="white"/>
<path d="M265.351 169.386H264.028C263.627 169.386 263.302 169.71 263.302 170.109C263.302 170.508 263.627 170.832 264.028 170.832H265.351C265.752 170.832 266.077 170.508 266.077 170.109C266.077 169.71 265.752 169.386 265.351 169.386Z" fill="white"/>
<path d="M256.949 169.266H248.728C248.327 169.266 248.002 169.589 248.002 169.989C248.002 170.388 248.327 170.711 248.728 170.711H256.949C257.35 170.711 257.676 170.388 257.676 169.989C257.676 169.589 257.35 169.266 256.949 169.266Z" fill="white"/>
<path d="M277.121 169.266H268.9C268.499 169.266 268.174 169.589 268.174 169.989C268.174 170.388 268.499 170.711 268.9 170.711H277.121C277.522 170.711 277.847 170.388 277.847 169.989C277.847 169.589 277.522 169.266 277.121 169.266Z" fill="white"/>
<path d="M249.97 172.649H248.647C248.246 172.649 247.921 172.973 247.921 173.372C247.921 173.772 248.246 174.095 248.647 174.095H249.97C250.371 174.095 250.696 173.772 250.696 173.372C250.696 172.973 250.371 172.649 249.97 172.649Z" fill="white"/>
<path d="M265.099 172.65H263.776C263.375 172.65 263.05 172.973 263.05 173.373C263.05 173.772 263.375 174.095 263.776 174.095H265.099C265.5 174.095 265.825 173.772 265.825 173.373C265.825 172.973 265.5 172.65 265.099 172.65Z" fill="white"/>
<path d="M269.385 172.649H268.062C267.661 172.649 267.336 172.973 267.336 173.372C267.336 173.772 267.661 174.095 268.062 174.095H269.385C269.786 174.095 270.111 173.772 270.111 173.372C270.111 172.973 269.786 172.649 269.385 172.649Z" fill="white"/>
<path d="M260.984 172.529H252.762C252.361 172.529 252.036 172.853 252.036 173.252C252.036 173.651 252.361 173.975 252.762 173.975H260.984C261.385 173.975 261.71 173.651 261.71 173.252C261.71 172.853 261.385 172.529 260.984 172.529Z" fill="white"/>
<path d="M281.155 172.529H272.934C272.533 172.529 272.208 172.852 272.208 173.252C272.208 173.651 272.533 173.975 272.934 173.975H281.155C281.557 173.975 281.882 173.651 281.882 173.252C281.882 172.852 281.557 172.529 281.155 172.529Z" fill="white"/>
<path d="M254.005 175.913H252.682C252.281 175.913 251.956 176.236 251.956 176.635C251.956 177.035 252.281 177.358 252.682 177.358H254.005C254.406 177.358 254.731 177.035 254.731 176.635C254.731 176.236 254.406 175.913 254.005 175.913Z" fill="white"/>
<path d="M269.133 175.913H267.81C267.409 175.913 267.084 176.236 267.084 176.635C267.084 177.035 267.409 177.358 267.81 177.358H269.133C269.534 177.358 269.859 177.035 269.859 176.635C269.859 176.236 269.534 175.913 269.133 175.913Z" fill="white"/>
<path d="M273.419 175.913H272.096C271.695 175.913 271.37 176.236 271.37 176.635C271.37 177.035 271.695 177.358 272.096 177.358H273.419C273.82 177.358 274.145 177.035 274.145 176.635C274.145 176.236 273.82 175.913 273.419 175.913Z" fill="white"/>
<path d="M265.018 175.792H256.796C256.395 175.792 256.07 176.116 256.07 176.515C256.07 176.914 256.395 177.238 256.796 177.238H265.018C265.419 177.238 265.744 176.914 265.744 176.515C265.744 176.116 265.419 175.792 265.018 175.792Z" fill="white"/>
<path d="M257.03 188.888H255.707C255.306 188.888 254.981 189.212 254.981 189.611C254.981 190.011 255.306 190.334 255.707 190.334H257.03C257.431 190.334 257.756 190.011 257.756 189.611C257.756 189.212 257.431 188.888 257.03 188.888Z" fill="white"/>
<path d="M261.317 188.888H259.994C259.593 188.888 259.268 189.212 259.268 189.611C259.268 190.011 259.593 190.334 259.994 190.334H261.317C261.718 190.334 262.043 190.011 262.043 189.611C262.043 189.212 261.718 188.888 261.317 188.888Z" fill="white"/>
<path d="M273.087 189.009H264.866C264.465 189.009 264.14 189.332 264.14 189.732C264.14 190.131 264.465 190.455 264.866 190.455H273.087C273.488 190.455 273.813 190.131 273.813 189.732C273.813 189.332 273.488 189.009 273.087 189.009Z" fill="white"/>
<path d="M241.901 188.888H240.579C240.178 188.888 239.853 189.212 239.853 189.611C239.853 190.01 240.178 190.334 240.579 190.334H241.901C242.303 190.334 242.628 190.01 242.628 189.611C242.628 189.212 242.303 188.888 241.901 188.888Z" fill="white"/>
<path d="M252.915 189.009H244.694C244.293 189.009 243.968 189.333 243.968 189.732C243.968 190.131 244.293 190.455 244.694 190.455H252.915C253.316 190.455 253.641 190.131 253.641 189.732C253.641 189.333 253.316 189.009 252.915 189.009Z" fill="white"/>
<path d="M245.936 185.625H244.613C244.212 185.625 243.887 185.949 243.887 186.348C243.887 186.747 244.212 187.071 244.613 187.071H245.936C246.337 187.071 246.662 186.747 246.662 186.348C246.662 185.949 246.337 185.625 245.936 185.625Z" fill="white"/>
<path d="M261.065 185.625H259.742C259.341 185.625 259.016 185.949 259.016 186.348C259.016 186.747 259.341 187.071 259.742 187.071H261.065C261.466 187.071 261.791 186.747 261.791 186.348C261.791 185.949 261.466 185.625 261.065 185.625Z" fill="white"/>
<path d="M265.351 185.625H264.028C263.627 185.625 263.302 185.949 263.302 186.348C263.302 186.747 263.627 187.071 264.028 187.071H265.351C265.752 187.071 266.077 186.747 266.077 186.348C266.077 185.949 265.752 185.625 265.351 185.625Z" fill="white"/>
<path d="M256.95 185.746H248.728C248.327 185.746 248.002 186.069 248.002 186.469C248.002 186.868 248.327 187.192 248.728 187.192H256.95C257.351 187.192 257.676 186.868 257.676 186.469C257.676 186.069 257.351 185.746 256.95 185.746Z" fill="white"/>
<path d="M249.97 182.362H248.647C248.246 182.362 247.921 182.686 247.921 183.085C247.921 183.484 248.246 183.808 248.647 183.808H249.97C250.371 183.808 250.696 183.484 250.696 183.085C250.696 182.686 250.371 182.362 249.97 182.362Z" fill="white"/>
<path d="M265.099 182.362H263.776C263.375 182.362 263.05 182.686 263.05 183.085C263.05 183.484 263.375 183.808 263.776 183.808H265.099C265.5 183.808 265.825 183.484 265.825 183.085C265.825 182.686 265.5 182.362 265.099 182.362Z" fill="white"/>
<path d="M269.385 182.362H268.062C267.661 182.362 267.336 182.686 267.336 183.085C267.336 183.484 267.661 183.808 268.062 183.808H269.385C269.786 183.808 270.111 183.484 270.111 183.085C270.111 182.686 269.786 182.362 269.385 182.362Z" fill="white"/>
<path d="M260.984 182.483H252.762C252.361 182.483 252.036 182.806 252.036 183.206C252.036 183.605 252.361 183.928 252.762 183.928H260.984C261.385 183.928 261.71 183.605 261.71 183.206C261.71 182.806 261.385 182.483 260.984 182.483Z" fill="white"/>
<path d="M254.005 179.099H252.682C252.281 179.099 251.956 179.423 251.956 179.822C251.956 180.221 252.281 180.545 252.682 180.545H254.005C254.406 180.545 254.731 180.221 254.731 179.822C254.731 179.423 254.406 179.099 254.005 179.099Z" fill="white"/>
<path d="M269.133 179.099H267.81C267.409 179.099 267.084 179.423 267.084 179.822C267.084 180.221 267.409 180.545 267.81 180.545H269.133C269.534 180.545 269.859 180.221 269.859 179.822C269.859 179.423 269.534 179.099 269.133 179.099Z" fill="white"/>
<path d="M273.419 179.099H272.096C271.695 179.099 271.37 179.423 271.37 179.822C271.37 180.221 271.695 180.545 272.096 180.545H273.419C273.82 180.545 274.145 180.221 274.145 179.822C274.145 179.423 273.82 179.099 273.419 179.099Z" fill="white"/>
<path d="M265.018 179.219H256.796C256.395 179.219 256.07 179.543 256.07 179.942C256.07 180.341 256.395 180.665 256.796 180.665H265.018C265.419 180.665 265.744 180.341 265.744 179.942C265.744 179.543 265.419 179.219 265.018 179.219Z" fill="white"/>
<path d="M234.869 227.131L228.659 217.36L248.151 201.891L256.196 193.018C257.241 191.866 258.572 191.006 260.055 190.526C261.539 190.045 263.123 189.961 264.649 190.281C266.176 190.601 267.591 191.314 268.754 192.35C269.917 193.385 270.786 194.706 271.276 196.18C272.001 198.365 271.845 200.745 270.841 202.818C269.836 204.891 268.063 206.494 265.894 207.29L253.172 211.956L234.869 227.131Z" fill="#FFB6B6"/>
<path d="M89.1672 156.28V203.773H122.589V156.28C122.59 155.938 122.48 155.606 122.277 155.331C122.073 155.056 121.787 154.853 121.459 154.752C121.304 154.701 121.142 154.676 120.98 154.678H90.7813C90.5696 154.677 90.3599 154.719 90.1642 154.799C89.9685 154.879 89.7906 154.997 89.6407 155.146C89.4908 155.295 89.3718 155.471 89.2905 155.666C89.2093 155.861 89.1674 156.069 89.1672 156.28ZM102.21 172.599C102.219 171.663 102.599 170.768 103.267 170.109C103.935 169.45 104.838 169.08 105.778 169.08C106.719 169.08 107.621 169.45 108.289 170.109C108.958 170.768 109.337 171.663 109.346 172.599V178.11C109.341 179.048 108.963 179.947 108.295 180.609C107.626 181.272 106.721 181.643 105.778 181.643C104.835 181.643 103.93 181.272 103.262 180.609C102.593 179.947 102.215 179.048 102.21 178.11V172.599Z" fill="#2F2E41"/>
<path d="M89.0645 202.254V206.834C89.0652 207.071 89.1599 207.299 89.328 207.467C89.496 207.635 89.7239 207.731 89.9622 207.733H121.793C122.032 207.731 122.26 207.636 122.429 207.468C122.597 207.3 122.691 207.072 122.691 206.834V202.254H89.0645Z" fill="#3F3D56"/>
<path d="M36.5898 84.7251V171.441C36.5906 172.546 37.032 173.606 37.8169 174.387C38.6018 175.168 39.6662 175.608 40.7762 175.609H169.859C170.969 175.608 172.034 175.168 172.818 174.387C173.603 173.606 174.045 172.546 174.046 171.441V84.7251C174.043 83.621 173.601 82.5629 172.816 81.7826C172.032 81.0023 170.968 80.5634 169.859 80.562H40.7762C39.6671 80.5634 38.6038 81.0023 37.8191 81.7826C37.0345 82.5629 36.5924 83.621 36.5898 84.7251Z" fill="#3F3D56"/>
<path d="M39.618 85.8041V170.371C39.619 170.962 39.8551 171.528 40.2744 171.945C40.6938 172.363 41.2623 172.598 41.8554 172.599H168.785C169.378 172.598 169.946 172.363 170.366 171.945C170.785 171.528 171.021 170.962 171.022 170.371V85.8041C171.022 85.2129 170.786 84.6459 170.367 84.2275C169.947 83.809 169.378 83.5733 168.785 83.572H41.8554C41.2616 83.5733 40.6926 83.809 40.2731 84.2275C39.8536 84.6459 39.618 85.2129 39.618 85.8041Z" fill="white"/>
<path d="M63.1739 207.422C63.3031 207.584 63.4673 207.714 63.6542 207.803C63.8411 207.892 64.0459 207.937 64.2531 207.936H139.768C139.974 207.936 140.178 207.89 140.364 207.801C140.551 207.713 140.715 207.584 140.845 207.424C140.975 207.265 141.068 207.078 141.117 206.878C141.165 206.679 141.168 206.47 141.126 206.269L139.954 200.726C139.905 200.5 139.801 200.29 139.649 200.114C139.498 199.939 139.306 199.804 139.089 199.721C138.931 199.66 138.764 199.628 138.596 199.629H65.4206C65.2519 199.628 65.0846 199.66 64.9275 199.721C64.7106 199.804 64.5178 199.939 64.3666 200.114C64.2155 200.29 64.1109 200.5 64.0623 200.726L62.8901 206.269C62.8484 206.47 62.8522 206.678 62.9013 206.878C62.9504 207.077 63.0435 207.263 63.1739 207.422Z" fill="#2F2E41"/>
<path d="M164.665 95.2216H45.8982C45.7748 95.2189 45.6573 95.1682 45.571 95.0803C45.4846 94.9924 45.4363 94.8744 45.4363 94.7514C45.4363 94.6285 45.4846 94.5105 45.571 94.4226C45.6573 94.3347 45.7748 94.284 45.8982 94.2812H164.665C164.789 94.284 164.906 94.3347 164.993 94.4226C165.079 94.5105 165.127 94.6285 165.127 94.7514C165.127 94.8744 165.079 94.9924 164.993 95.0803C164.906 95.1682 164.789 95.2189 164.665 95.2216Z" fill="#3F3D56"/>
<path d="M53.9829 91.8804C55.5115 91.8804 56.7508 90.6192 56.7508 89.0635C56.7508 87.5078 55.5115 86.2466 53.9829 86.2466C52.4542 86.2466 51.2149 87.5078 51.2149 89.0635C51.2149 90.6192 52.4542 91.8804 53.9829 91.8804Z" fill="#3F3D56"/>
<path d="M63.5443 91.8804C65.073 91.8804 66.3122 90.6192 66.3122 89.0635C66.3122 87.5078 65.073 86.2466 63.5443 86.2466C62.0156 86.2466 60.7764 87.5078 60.7764 89.0635C60.7764 90.6192 62.0156 91.8804 63.5443 91.8804Z" fill="#3F3D56"/>
<path d="M73.1067 91.8804C74.6353 91.8804 75.8746 90.6192 75.8746 89.0635C75.8746 87.5078 74.6353 86.2466 73.1067 86.2466C71.578 86.2466 70.3387 87.5078 70.3387 89.0635C70.3387 90.6192 71.578 91.8804 73.1067 91.8804Z" fill="#3F3D56"/>
<path d="M158.908 86.9434H152.116C151.982 86.9465 151.854 87.0017 151.761 87.0974C151.667 87.193 151.614 87.3214 151.614 87.4551C151.614 87.5887 151.667 87.7171 151.761 87.8127C151.854 87.9084 151.982 87.9636 152.116 87.9668H158.908C159.043 87.9649 159.172 87.9101 159.267 87.8144C159.361 87.7186 159.415 87.5895 159.415 87.4551C159.415 87.3206 159.361 87.1915 159.267 87.0958C159.172 87 159.043 86.9453 158.908 86.9434Z" fill="#3F3D56"/>
<path d="M158.908 88.865H152.116C151.982 88.8679 151.854 88.9232 151.76 89.0188C151.666 89.1144 151.613 89.2429 151.613 89.3767C151.613 89.5105 151.666 89.6389 151.76 89.7346C151.854 89.8302 151.982 89.8854 152.116 89.8884H158.908C159.043 89.8868 159.172 89.8321 159.267 89.7364C159.362 89.6406 159.415 89.5114 159.415 89.3767C159.415 89.242 159.362 89.1128 159.267 89.017C159.172 88.9212 159.043 88.8666 158.908 88.865Z" fill="#3F3D56"/>
<path d="M158.908 90.7866H152.116C151.982 90.7897 151.854 90.845 151.761 90.9406C151.667 91.0363 151.614 91.1646 151.614 91.2983C151.614 91.432 151.667 91.5604 151.761 91.656C151.854 91.7516 151.982 91.8069 152.116 91.81H158.908C159.043 91.8081 159.172 91.7534 159.267 91.6576C159.361 91.5619 159.415 91.4328 159.415 91.2983C159.415 91.1639 159.361 91.0348 159.267 90.939C159.172 90.8433 159.043 90.7885 158.908 90.7866Z" fill="#3F3D56"/>
<path d="M322.635 204.264C322.84 204.858 323.229 205.372 323.746 205.733C324.263 206.093 324.881 206.281 325.512 206.27L337.835 205.954C338.47 205.942 339.084 205.725 339.586 205.336C340.087 204.948 340.449 204.408 340.617 203.797L342.361 185.234C342.979 185.513 343.653 185.651 344.332 185.637C344.922 185.622 345.503 185.492 346.043 185.254C346.582 185.015 347.069 184.674 347.476 184.248C347.882 183.822 348.201 183.321 348.413 182.773C348.625 182.224 348.727 181.64 348.712 181.052C348.697 180.465 348.566 179.886 348.327 179.349C348.087 178.812 347.744 178.328 347.316 177.923C346.889 177.518 346.385 177.201 345.834 176.99C345.283 176.779 344.696 176.677 344.106 176.692C343.835 176.691 343.564 176.719 343.299 176.776C343.01 176.465 342.659 176.218 342.269 176.05C341.878 175.882 341.457 175.798 341.032 175.802L322.076 176.289C321.919 176.295 321.762 176.314 321.608 176.347C321.193 176.424 320.798 176.589 320.452 176.831C320.106 177.072 319.815 177.385 319.601 177.747C319.386 178.11 319.252 178.514 319.207 178.933C319.162 179.351 319.208 179.775 319.341 180.174L322.635 204.264ZM342.718 183.974L343.959 179.55C344.1 179.039 344.104 178.5 343.969 177.987C344.029 177.987 344.082 177.959 344.142 177.958C344.993 177.941 345.816 178.26 346.431 178.846C347.046 179.431 347.402 180.236 347.422 181.083C347.442 181.93 347.124 182.75 346.537 183.364C345.951 183.978 345.143 184.335 344.293 184.357C343.743 184.374 343.198 184.241 342.718 183.974Z" fill="#2F2E41"/>
<path d="M321.608 176.347C322.012 178.646 326.553 180.262 332.012 179.981C337.032 179.751 341.137 177.996 341.889 175.916C341.611 175.834 341.322 175.795 341.032 175.802L322.076 176.289C321.919 176.295 321.762 176.314 321.608 176.347Z" fill="#3F3D56"/>
<path d="M333.013 194.064C333.038 194.057 333.062 194.047 333.083 194.033L335.759 192.289C335.792 192.268 335.818 192.239 335.837 192.206C335.855 192.172 335.865 192.134 335.865 192.096C335.865 192.057 335.855 192.019 335.837 191.986C335.818 191.952 335.792 191.923 335.759 191.902L332.978 190.088C332.952 190.071 332.924 190.06 332.894 190.054C332.864 190.048 332.833 190.048 332.803 190.055C332.773 190.061 332.744 190.073 332.719 190.09C332.694 190.107 332.672 190.129 332.655 190.154C332.638 190.18 332.627 190.208 332.621 190.238C332.616 190.268 332.616 190.299 332.622 190.329C332.628 190.359 332.641 190.387 332.658 190.412C332.675 190.437 332.697 190.459 332.723 190.475L335.207 192.095L332.829 193.646C332.783 193.676 332.749 193.721 332.733 193.773C332.717 193.826 332.721 193.882 332.743 193.932C332.765 193.983 332.804 194.023 332.854 194.047C332.903 194.071 332.96 194.077 333.013 194.064Z" fill="#1975FF"/>
<path d="M328.786 194.258C328.831 194.246 328.872 194.222 328.903 194.187C328.933 194.153 328.953 194.11 328.96 194.065C328.966 194.019 328.958 193.972 328.938 193.931C328.917 193.89 328.885 193.855 328.845 193.832L326.378 192.424L328.762 190.661C328.787 190.643 328.807 190.62 328.823 190.594C328.839 190.568 328.849 190.539 328.854 190.509C328.858 190.479 328.857 190.449 328.849 190.419C328.842 190.39 328.828 190.362 328.81 190.338C328.792 190.313 328.769 190.293 328.743 190.277C328.717 190.261 328.688 190.251 328.658 190.247C328.627 190.242 328.597 190.244 328.567 190.251C328.537 190.259 328.51 190.272 328.485 190.29L325.816 192.264C325.785 192.287 325.76 192.317 325.744 192.352C325.727 192.386 325.72 192.425 325.722 192.463C325.724 192.502 325.736 192.539 325.757 192.571C325.777 192.604 325.805 192.631 325.839 192.65L328.613 194.234C328.666 194.264 328.728 194.272 328.786 194.258Z" fill="#1975FF"/>
<path d="M332.746 195.592C332.769 195.586 332.79 195.577 332.81 195.565C332.836 195.549 332.859 195.528 332.877 195.504C332.895 195.479 332.908 195.451 332.915 195.422C332.923 195.392 332.924 195.362 332.919 195.332C332.915 195.301 332.904 195.273 332.888 195.247L329.094 189.038C329.062 188.985 329.011 188.948 328.951 188.933C328.891 188.919 328.828 188.929 328.775 188.961C328.722 188.993 328.684 189.044 328.67 189.104C328.655 189.163 328.665 189.226 328.697 189.279L332.491 195.488C332.517 195.53 332.555 195.563 332.601 195.582C332.647 195.6 332.698 195.604 332.746 195.592Z" fill="#1975FF"/>
<path d="M119.473 120.783H98.9168C98.0782 120.783 97.3984 121.46 97.3984 122.295V124.294C97.3984 125.129 98.0782 125.806 98.9168 125.806H119.473C120.311 125.806 120.991 125.129 120.991 124.294V122.295C120.991 121.46 120.311 120.783 119.473 120.783Z" fill="#1975FF"/>
<path d="M131.454 130.828H86.9345C86.0959 130.828 85.4161 131.505 85.4161 132.34V134.339C85.4161 135.174 86.0959 135.851 86.9345 135.851H131.454C132.293 135.851 132.973 135.174 132.973 134.339V132.34C132.973 131.505 132.293 130.828 131.454 130.828Z" fill="#E6E6E6"/>
<path d="M131.454 140.873H86.9345C86.0959 140.873 85.4161 141.55 85.4161 142.385V144.384C85.4161 145.219 86.0959 145.895 86.9345 145.895H131.454C132.293 145.895 132.973 145.219 132.973 144.384V142.385C132.973 141.55 132.293 140.873 131.454 140.873Z" fill="#E6E6E6"/>
<path d="M135.229 174.509L135.329 174.826L135.335 174.837L138.37 184.023L141.862 194.61L148.431 214.504L148.495 217.594V217.605L148.983 242.465L147.63 245.835L149.153 251.361C149.153 251.361 148.452 243.009 144.695 247.805C142.567 250.531 140.079 253.32 138.036 255.935C141.013 257.134 144.037 258.219 147.11 259.189C147.773 259.401 148.442 259.601 149.11 259.802C149.253 259.844 149.397 259.887 149.54 259.929C159.725 262.927 170.254 264.612 180.869 264.942C181.421 264.958 181.962 264.968 182.488 264.979C182.673 264.984 182.854 264.99 183.034 264.99C183.628 264.995 184.217 265 184.812 265C186.011 265 187.205 264.983 188.394 264.947C197.191 264.701 205.938 263.523 214.485 261.434C214.427 257.921 214.268 253.817 214.04 249.432C213.933 247.282 211.551 244.953 211.408 242.702C211.307 241.012 213.445 239.422 213.334 237.705C212.612 227.134 211.71 231.192 211.042 223.706C210.973 222.972 210.909 222.27 210.85 221.599C210.421 216.791 210.123 213.786 210.123 213.786L212.978 195.872L217.462 167.747L217.117 167.182L216.73 166.992L193.079 155.339L191.795 152.063C191.421 151.12 190.772 150.309 189.931 149.736C189.09 149.162 188.097 148.853 187.078 148.846L171.498 148.783C170.689 148.779 169.892 148.967 169.171 149.332C168.45 149.697 167.827 150.228 167.354 150.88L163.135 156.696L135.229 174.509Z" fill="#3F3D56"/>
<path d="M152.023 210.077L148.494 217.594L146.085 222.729L141.94 244.33L139.866 246.522L138.088 238.761L119.483 242.874C118.872 239.498 119.319 242.988 118.942 239.285C119.049 239.179 119.16 239.074 119.271 238.968C119.569 238.693 119.818 238.434 119.813 238.186C119.6 225.413 120.237 203.675 125.554 190.505C126.387 188.355 127.485 186.316 128.823 184.435C128.929 184.293 129.03 184.15 129.131 184.007C131.582 180.59 133.132 177.225 135.329 174.831V174.826C135.342 174.815 135.355 174.803 135.366 174.789C135.374 174.785 135.381 174.78 135.387 174.773L150.478 166.807L151.126 184.916L151.588 197.932L152.023 210.077Z" fill="#3F3D56"/>
<path d="M206.44 212.212L210.848 221.601L212.387 224.871L216.53 246.47L218.598 248.657L220.38 240.898L221.217 240.727L236.315 237.614L240.716 251.527C241.708 249.882 242.099 247.947 241.822 246.048C241.546 244.149 240.619 242.403 239.199 241.106C238.898 240.835 238.648 240.571 238.655 240.322C238.906 225.298 237.982 197.865 229.646 186.574C226.999 182.991 225.41 179.422 223.099 176.929C223.091 176.922 223.092 176.915 223.084 176.915L217.46 167.747L217.116 167.184L216.73 166.992L206.44 212.212Z" fill="#3F3D56"/>
<path d="M179.738 144.369C191.185 144.369 200.464 135.131 200.464 123.735C200.464 112.339 191.185 103.101 179.738 103.101C168.29 103.101 159.011 112.339 159.011 123.735C159.011 135.131 168.29 144.369 179.738 144.369Z" fill="#FFB6B6"/>
<path d="M207.752 109.322C207.592 109.151 207.398 109.014 207.183 108.919C206.968 108.825 206.736 108.774 206.501 108.771L206.813 107.909C206.914 107.638 206.942 107.345 206.892 107.059C206.843 106.774 206.718 106.507 206.53 106.286C206.343 106.064 206.1 105.896 205.826 105.799C205.552 105.702 205.257 105.679 204.971 105.733L203.836 105.951L203.943 105.196C203.984 104.915 203.951 104.628 203.846 104.363C203.742 104.099 203.571 103.866 203.349 103.687C203.127 103.509 202.862 103.391 202.58 103.345C202.299 103.3 202.01 103.328 201.742 103.427C201.499 103.522 201.238 103.562 200.977 103.544C200.716 103.525 200.463 103.449 200.235 103.32C200.007 103.196 199.809 103.023 199.655 102.814C199.5 102.605 199.394 102.366 199.342 102.112L198.947 100.213L198.905 100.111C196.979 96.916 193.277 94.5913 188.746 93.7393C184.713 92.9752 180.578 93.3642 176.591 93.73C175.01 93.8782 173.223 94.0449 171.735 94.9525C170.47 95.7305 169.4 97.2864 169.618 98.8563C165.688 97.6569 161.473 100.051 159.385 103.07C156.91 106.664 156.505 111.165 156.44 114.684C156.263 123.01 157.989 129.822 161.557 134.935C161.818 135.305 161.883 136.078 162.399 136.338L162.292 136.166C162.869 136.454 163.455 136.917 163.236 137.412C162.608 138.838 166.781 141.992 169.721 143.034C175.084 144.937 182.215 144.775 187.229 144.09L187.406 142.909C189.216 142.663 190.49 142.196 190.848 141.464C191.481 140.927 192.021 140.445 192.49 140.001L192.495 139.996C192.504 139.987 192.523 139.973 192.532 139.964C194.798 137.801 195.323 136.569 195.56 134.694C195.788 132.855 195.384 130.989 194.97 129.308C203.687 130.651 191.537 120.065 199.659 118.018C199.752 117.99 199.846 117.967 199.942 117.949C200.18 117.893 200.417 117.838 200.645 117.773C201.743 117.476 202.795 117.029 203.771 116.444C206.041 115.069 206.79 113.244 207.962 111.188C208.131 110.895 208.202 110.556 208.164 110.221C208.126 109.885 207.982 109.57 207.752 109.322Z" fill="#413D2E"/>
<path d="M253.045 213.681C253.04 214.491 253.031 215.626 252.994 217.029C252.989 217.224 252.985 217.423 252.98 217.626C252.92 220.206 252.859 222.368 252.761 224.772C252.757 224.938 252.752 225.101 252.743 225.267C252.613 228.62 252.408 232.524 252.054 238.706C251.398 250.125 250.254 240.276 249.105 244.281C249.049 244.48 248.989 244.717 248.933 244.994C248.759 246.003 248.466 246.986 248.059 247.926C247.449 248.287 246.821 248.634 246.203 248.982C244.44 249.959 242.649 250.899 240.844 251.792C239.83 252.293 238.811 252.783 237.788 253.256C237.625 253.33 237.467 253.404 237.309 253.473C232.068 255.886 226.667 257.938 221.144 259.614C220.065 259.938 218.991 260.253 217.902 260.545C216.767 260.859 215.632 261.156 214.483 261.434C205.936 263.523 197.19 264.701 188.392 264.948C187.206 264.985 186.01 264.999 184.81 264.999C184.215 264.999 183.629 264.995 183.033 264.99C182.852 264.99 182.671 264.985 182.489 264.981C181.964 264.967 181.419 264.958 180.87 264.944C170.255 264.614 159.726 262.929 149.542 259.929L149.109 259.804C148.439 259.6 147.774 259.401 147.109 259.188C144.039 258.22 141.014 257.136 138.033 255.937C135.759 255.025 133.511 254.046 131.289 253.001C131.268 252.996 131.249 252.986 131.233 252.973C130.768 252.76 130.298 252.538 129.833 252.311C129.772 252.279 129.707 252.246 129.642 252.214C127.907 251.371 126.19 250.488 124.493 249.565C123.065 246.3 121.055 245.675 119.808 242.804C119.446 241.951 119.183 241.059 119.027 240.146C119.027 240.137 119.022 240.127 119.022 240.114C119.152 241.836 118.469 237.057 119.018 240.095C119.013 240.039 119.008 239.979 119.004 239.91C118.99 239.743 118.971 239.539 118.943 239.285C117.348 223.776 117.45 206.04 116.757 191.426C116.71 190.481 116.662 189.576 116.613 188.712C116.599 188.425 116.58 188.142 116.562 187.864C116.594 187.781 116.631 187.693 116.673 187.61C116.682 187.586 116.693 187.563 116.706 187.54C116.719 187.512 116.735 187.484 116.752 187.457C116.762 187.443 116.776 187.425 116.785 187.411C116.792 187.395 116.799 187.379 116.808 187.364C116.85 187.3 116.896 187.23 116.948 187.165C116.971 187.137 116.989 187.114 117.013 187.091C117.029 187.067 117.048 187.046 117.069 187.026C117.083 187.004 117.1 186.984 117.12 186.966C117.138 186.948 117.157 186.924 117.18 186.901C117.19 186.887 117.203 186.874 117.217 186.864C117.254 186.822 117.295 186.783 117.338 186.748C117.504 186.596 117.682 186.457 117.869 186.332C117.934 186.29 118.004 186.248 118.069 186.202C118.537 185.923 119.031 185.687 119.543 185.498C119.72 185.433 119.897 185.373 120.087 185.308C120.157 185.29 120.222 185.267 120.292 185.243C120.394 185.211 120.497 185.179 120.604 185.155C121.134 184.998 121.706 184.864 122.325 184.739C122.399 184.725 122.478 184.711 122.557 184.692C122.669 184.669 122.785 184.651 122.902 184.632C123.06 184.604 123.223 184.577 123.385 184.549C124.767 184.331 126.335 184.169 128.065 184.063C128.228 184.053 128.391 184.044 128.553 184.035C128.744 184.026 128.935 184.016 129.13 184.007C129.293 183.998 129.461 183.993 129.628 183.989C129.791 183.979 129.958 183.975 130.13 183.97C130.6 183.956 131.084 183.942 131.577 183.933C132.982 183.905 134.461 183.914 136.015 183.947C136.736 183.965 137.471 183.984 138.224 184.016C138.275 184.016 138.322 184.021 138.368 184.021C139.024 184.044 139.685 184.072 140.364 184.109C140.838 184.132 141.318 184.155 141.797 184.183C142.248 184.211 142.704 184.239 143.164 184.271C143.522 184.29 143.881 184.317 144.243 184.34C144.55 184.364 144.857 184.387 145.164 184.405L145.583 184.433C145.811 184.452 146.039 184.465 146.272 184.489C146.783 184.53 147.295 184.572 147.816 184.614C148.332 184.66 148.858 184.706 149.383 184.753C149.909 184.799 150.439 184.85 150.97 184.901C151.025 184.905 151.077 184.91 151.128 184.915C151.612 184.966 152.095 185.012 152.584 185.063C152.695 185.072 152.812 185.081 152.923 185.095C153.389 185.142 153.864 185.196 154.334 185.246C154.478 185.262 154.621 185.277 154.766 185.292C155.134 185.332 155.497 185.367 155.868 185.41C156.356 185.466 156.854 185.517 157.338 185.582C157.714 185.623 158.091 185.665 158.468 185.711C159.059 185.781 159.659 185.855 160.259 185.933C160.487 185.961 160.715 185.989 160.943 186.021C162.655 186.234 164.385 186.471 166.143 186.716C168.809 187.091 171.516 187.499 174.242 187.939C176.972 188.379 179.718 188.843 182.48 189.332C183.178 189.457 183.875 189.582 184.578 189.712C184.894 189.772 185.21 189.833 185.527 189.893C186.066 189.99 186.606 190.092 187.145 190.194C187.685 190.296 188.225 190.397 188.764 190.504C189.406 190.629 190.053 190.754 190.695 190.879C194.923 191.713 199.128 192.602 203.231 193.533C203.905 193.685 204.58 193.843 205.25 193.996C206.589 194.306 207.917 194.621 209.231 194.94C209.594 195.024 209.952 195.112 210.311 195.2C211.204 195.422 212.097 195.644 212.976 195.871L213.129 195.913C213.776 196.07 214.409 196.232 215.041 196.399C216.534 196.788 218.003 197.182 219.446 197.58C220.405 197.844 221.352 198.111 222.289 198.381C223.689 198.784 225.061 199.191 226.396 199.603C226.726 199.705 227.056 199.807 227.382 199.904C228.359 200.205 229.322 200.511 230.257 200.817C231.001 201.058 231.727 201.303 232.443 201.548C233.159 201.794 233.862 202.039 234.55 202.285C234.992 202.442 235.429 202.609 235.867 202.766C236.495 202.998 237.113 203.229 237.718 203.461C237.904 203.53 238.085 203.604 238.267 203.674C238.383 203.725 238.495 203.767 238.606 203.813C238.825 203.901 239.048 203.984 239.262 204.072C239.481 204.156 239.695 204.244 239.909 204.336C240.118 204.419 240.332 204.507 240.537 204.595C240.746 204.679 240.951 204.767 241.156 204.859C241.328 204.929 241.495 205.003 241.658 205.077C241.988 205.221 242.318 205.364 242.639 205.512C242.798 205.586 242.956 205.656 243.114 205.73L243.477 205.897C243.528 205.924 243.579 205.948 243.63 205.971C243.746 206.026 243.867 206.087 243.984 206.142C244.253 206.267 244.519 206.401 244.779 206.527C245.128 206.702 245.468 206.878 245.793 207.05C246.123 207.226 246.444 207.402 246.751 207.573C246.803 207.601 246.849 207.629 246.9 207.656C246.97 207.693 247.04 207.735 247.11 207.772C247.347 207.906 247.575 208.045 247.803 208.18C248.249 208.453 248.673 208.721 249.068 208.99C249.156 209.05 249.24 209.11 249.328 209.166C249.621 209.374 249.901 209.578 250.161 209.787C250.161 209.791 250.161 209.791 250.166 209.791C250.254 209.856 250.338 209.925 250.422 209.99C250.491 210.055 250.566 210.111 250.636 210.176C250.877 210.384 251.101 210.583 251.305 210.787C251.374 210.85 251.439 210.916 251.501 210.986C251.528 211.008 251.553 211.033 251.575 211.06C251.668 211.153 251.752 211.245 251.831 211.338C251.843 211.351 251.854 211.365 251.864 211.38C251.975 211.509 252.078 211.639 252.175 211.769C252.222 211.833 252.273 211.898 252.315 211.963C252.371 212.042 252.426 212.125 252.473 212.204C252.515 212.269 252.552 212.338 252.589 212.403C252.688 212.57 252.772 212.745 252.84 212.926C252.893 213.049 252.935 213.176 252.966 213.306C253.001 213.429 253.028 213.554 253.045 213.681Z" fill="#2F2E41"/>
<path opacity="0.2" d="M253.045 213.681C253.04 214.492 253.031 215.626 252.994 217.029C252.989 217.224 252.98 217.423 252.975 217.627C252.929 219.595 252.859 222.026 252.761 224.772C252.757 224.939 252.752 225.101 252.743 225.268C252.612 228.62 252.408 232.524 252.054 238.706C251.398 250.126 250.254 240.276 249.105 244.282C245.914 242.327 242.416 240.281 238.676 238.178C238.002 237.799 237.321 237.417 236.634 237.034C229.154 232.881 220.8 228.528 212.078 224.216C211.734 224.045 211.385 223.874 211.041 223.707C191.062 213.876 169.255 204.313 151.588 197.932C148.178 196.7 144.922 195.589 141.862 194.612C135.414 192.56 129.842 191.125 125.553 190.504C121.087 189.856 118.003 190.088 116.757 191.426C116.71 190.481 116.662 189.577 116.612 188.712C116.594 188.425 116.575 188.143 116.557 187.865C116.585 187.789 116.623 187.716 116.659 187.642C116.664 187.632 116.668 187.621 116.673 187.61C116.682 187.586 116.693 187.563 116.705 187.541C116.719 187.512 116.735 187.484 116.752 187.457C116.767 187.424 116.786 187.393 116.808 187.365C116.85 187.3 116.896 187.23 116.947 187.166C116.985 187.117 117.025 187.071 117.068 187.027C117.083 187.004 117.1 186.984 117.119 186.966C117.138 186.948 117.157 186.925 117.18 186.902C117.19 186.887 117.203 186.874 117.217 186.865C117.254 186.822 117.294 186.784 117.338 186.749C117.504 186.597 117.681 186.457 117.868 186.332C117.934 186.29 118.003 186.249 118.068 186.202C118.537 185.923 119.031 185.688 119.543 185.498C119.72 185.434 119.897 185.373 120.087 185.309C120.157 185.29 120.222 185.267 120.292 185.244C120.394 185.211 120.497 185.179 120.604 185.156C121.134 184.998 121.706 184.864 122.325 184.739C122.511 184.702 122.706 184.665 122.901 184.633C123.06 184.605 123.222 184.577 123.385 184.549C124.767 184.332 126.334 184.169 128.065 184.063C128.228 184.054 128.39 184.044 128.553 184.035C128.744 184.026 128.935 184.017 129.13 184.007C129.293 183.998 129.46 183.993 129.628 183.989C129.791 183.98 129.958 183.975 130.13 183.97C130.6 183.956 131.084 183.943 131.577 183.933C132.982 183.91 134.461 183.919 136.014 183.952C136.735 183.966 137.47 183.989 138.224 184.021C138.27 184.021 138.322 184.026 138.368 184.026C139.024 184.044 139.689 184.077 140.364 184.109C140.838 184.132 141.317 184.156 141.796 184.183C142.248 184.211 142.703 184.239 143.164 184.271C143.522 184.29 143.88 184.318 144.243 184.341C144.55 184.364 144.857 184.387 145.164 184.406C145.532 184.433 145.899 184.461 146.271 184.489C146.783 184.531 147.295 184.572 147.816 184.614C148.332 184.66 148.858 184.707 149.383 184.753C149.909 184.799 150.439 184.85 150.969 184.901C151.025 184.906 151.076 184.91 151.128 184.915C151.611 184.966 152.095 185.012 152.584 185.063C155.291 185.336 158.077 185.656 160.943 186.022C162.654 186.239 164.388 186.472 166.143 186.721C168.808 187.096 171.516 187.504 174.242 187.939C176.972 188.379 179.718 188.843 182.48 189.333C183.177 189.458 183.875 189.583 184.577 189.712C185.433 189.87 186.289 190.03 187.145 190.194C187.685 190.296 188.224 190.398 188.764 190.504C189.406 190.629 190.052 190.754 190.694 190.879C194.923 191.713 199.128 192.602 203.231 193.533C203.905 193.686 204.58 193.843 205.249 193.996C206.589 194.306 207.916 194.621 209.231 194.941C209.594 195.029 209.952 195.117 210.31 195.205C211.208 195.427 212.097 195.649 212.976 195.871V195.876C213.027 195.885 213.078 195.899 213.129 195.913C213.771 196.075 214.408 196.237 215.041 196.404C216.534 196.793 218.003 197.185 219.446 197.58C220.404 197.849 221.353 198.113 222.288 198.381C223.688 198.789 225.061 199.196 226.396 199.604C226.726 199.706 227.056 199.808 227.382 199.905C228.359 200.21 229.317 200.515 230.257 200.817C231.001 201.058 231.726 201.303 232.443 201.549C233.159 201.794 233.862 202.04 234.55 202.285C234.997 202.443 235.434 202.605 235.866 202.762C236.499 202.994 237.113 203.225 237.718 203.461C237.904 203.531 238.085 203.605 238.267 203.674C238.606 203.804 238.937 203.938 239.262 204.073C239.481 204.156 239.695 204.244 239.909 204.336C240.118 204.42 240.332 204.508 240.537 204.596C240.746 204.679 240.951 204.767 241.155 204.86C241.327 204.929 241.495 205.003 241.658 205.077C241.988 205.221 242.318 205.365 242.639 205.513C242.797 205.587 242.956 205.656 243.114 205.73L243.477 205.897C243.528 205.925 243.579 205.948 243.63 205.971C244.025 206.156 244.407 206.342 244.779 206.527C245.128 206.703 245.467 206.879 245.793 207.05C246.179 207.254 246.547 207.453 246.9 207.657C246.97 207.694 247.04 207.735 247.109 207.773C247.347 207.907 247.575 208.046 247.803 208.18C248.249 208.453 248.672 208.722 249.068 208.99C249.459 209.259 249.821 209.523 250.161 209.787C250.161 209.792 250.161 209.792 250.166 209.792C250.328 209.921 250.487 210.051 250.635 210.176C250.877 210.384 251.101 210.583 251.305 210.787C251.374 210.85 251.439 210.916 251.501 210.986C251.528 211.009 251.553 211.033 251.575 211.06C251.673 211.167 251.77 211.273 251.863 211.38C251.975 211.51 252.077 211.639 252.175 211.769C252.222 211.834 252.273 211.899 252.315 211.963C252.37 212.042 252.426 212.125 252.473 212.204C252.515 212.269 252.552 212.338 252.589 212.403C252.688 212.57 252.772 212.745 252.84 212.927C252.891 213.05 252.933 213.177 252.966 213.306C253.001 213.429 253.028 213.555 253.045 213.681Z" fill="black"/>
</g>
<defs>
<clipPath id="clip0_101_424">
<rect width="366" height="265" fill="white"/>
</clipPath>
</defs>
</svg>
