<svg width="158" height="32" viewBox="0 0 158 32" fill="none" xmlns="http://www.w3.org/2000/svg">
<path d="M0.377869 0H11.0445V10.6667H0.377869V0Z" fill="#F89007"/>
<path d="M0.377869 10.6667H11.0445V21.3333H0.377869V10.6667Z" fill="#FAA638"/>
<path d="M0.377869 21.3333H11.0445V32H0.377869V21.3333Z" fill="#FBBC6A"/>
<path d="M11.0445 10.6667H21.7112V21.3333H11.0445V10.6667Z" fill="#F89007"/>
<path d="M11.0445 21.3333H21.7112V32H11.0445V21.3333Z" fill="#FAA638"/>
<path d="M21.7112 21.3333H32.3779V32H21.7112V21.3333Z" fill="#F89007"/>
<path d="M41.2578 25.3334V24.5121L51.7591 7.67475H44.0738C43.5653 7.67475 43.2915 7.88986 43.2524 8.32008L42.8124 11.7521H42.1378V10.3734C42.1378 8.65252 42.0498 7.39119 41.8738 6.58941C42.4995 6.76541 43.5849 6.85341 45.1298 6.85341H54.6044V7.67475L44.0738 24.5121H52.4044C52.9129 24.5121 53.1866 24.297 53.2258 23.8667L53.6658 20.4347H54.3404V21.8134C54.3404 23.5343 54.4284 24.7956 54.6044 25.5974C53.9786 25.4214 52.8933 25.3334 51.3484 25.3334H41.2578Z" fill="#141C24"/>
<path d="M62.5728 12.3094C63.9221 12.3094 64.9879 12.7592 65.7701 13.6587C66.5523 14.5583 66.9434 15.8783 66.9434 17.6187C66.9434 17.9707 66.9239 18.3619 66.8848 18.7921H58.8768V18.9974C58.8768 20.8552 59.2092 22.3219 59.8741 23.3974C60.5586 24.4534 61.4288 24.9814 62.4848 24.9814C63.5603 24.9814 64.4403 24.7076 65.1248 24.1601C65.8092 23.6125 66.2786 22.8303 66.5328 21.8134L67.0901 21.9307C66.8554 23.1236 66.3177 24.0525 65.4768 24.7174C64.6359 25.3627 63.6679 25.6854 62.5728 25.6854C60.8714 25.6854 59.4537 25.089 58.3194 23.8961C57.2048 22.7032 56.6474 21.0801 56.6474 19.0267C56.6474 16.9539 57.2146 15.321 58.3488 14.1281C59.483 12.9156 60.891 12.3094 62.5728 12.3094ZM64.9194 16.6214C64.9194 14.2161 64.0199 13.0134 62.2208 13.0134C61.3212 13.0134 60.5488 13.5023 59.9034 14.4801C59.2777 15.4579 58.9452 16.6996 58.9061 18.2054H64.8021C64.8803 17.5405 64.9194 17.0125 64.9194 16.6214Z" fill="#141C24"/>
<path d="M81.6807 16.7681V24.4534C81.6807 24.6881 81.8176 24.8054 82.0914 24.8054H83.47V25.3334H78.19V24.8054H79.158C79.4318 24.8054 79.5687 24.6881 79.5687 24.4534V16.3867C79.5687 15.3894 79.3438 14.6561 78.894 14.1867C78.4638 13.6979 77.8869 13.4534 77.1634 13.4534C76.1465 13.4534 75.3056 14.0596 74.6407 15.2721C73.9758 16.465 73.6434 18.1859 73.6434 20.4347V24.3947C73.6434 24.6685 73.7802 24.8054 74.054 24.8054H75.022V25.3334H69.742V24.8054H71.1207C71.3945 24.8054 71.5314 24.6881 71.5314 24.4534V13.6001C71.5314 13.3263 71.3945 13.1894 71.1207 13.1894H69.742V12.6614H71.1794C72.3527 12.6614 73.174 12.6027 73.6434 12.4854V16.4747C74.3082 13.6979 75.7749 12.3094 78.0434 12.3094C79.0602 12.3094 79.9207 12.681 80.6247 13.4241C81.3287 14.1476 81.6807 15.2623 81.6807 16.7681Z" fill="#141C24"/>
<path d="M87.6017 24.3947V13.6001C87.6017 13.3263 87.4648 13.1894 87.191 13.1894H85.8123V12.6614H87.2497C88.423 12.6614 89.2443 12.6027 89.7137 12.4854V24.4534C89.7137 24.6881 89.8506 24.8054 90.1243 24.8054H91.503V25.3334H85.8123V24.8054H87.191C87.4648 24.8054 87.6017 24.6685 87.6017 24.3947ZM87.6603 9.43475C87.4061 9.16097 87.279 8.82853 87.279 8.43741C87.279 8.0463 87.4061 7.72364 87.6603 7.46941C87.9341 7.19564 88.2666 7.05875 88.6577 7.05875C89.0488 7.05875 89.3714 7.19564 89.6257 7.46941C89.8994 7.72364 90.0363 8.0463 90.0363 8.43741C90.0363 8.82853 89.8994 9.16097 89.6257 9.43475C89.3714 9.68897 89.0488 9.81608 88.6577 9.81608C88.2666 9.81608 87.9341 9.68897 87.6603 9.43475Z" fill="#141C24"/>
<path d="M96.4179 9.55208H96.8579V12.6614H99.7913V13.1894H96.8579V23.1334C96.8579 24.1894 97.1513 24.7174 97.7379 24.7174C98.0117 24.7174 98.2464 24.5903 98.4419 24.3361C98.6571 24.0819 98.7646 23.7885 98.7646 23.4561C98.7646 23.1236 98.7353 22.8107 98.6766 22.5174L99.2339 22.4294C99.3122 22.7227 99.3513 23.0454 99.3513 23.3974C99.3513 24.1014 99.1362 24.6587 98.7059 25.0694C98.2953 25.4801 97.7477 25.6854 97.0633 25.6854C96.3788 25.6854 95.8215 25.4116 95.3913 24.8641C94.9611 24.297 94.7459 23.4561 94.7459 22.3414V13.6001C94.7459 13.3263 94.6091 13.1894 94.3353 13.1894H92.9566V12.6614H94.3939C95.0197 12.6614 95.6944 11.625 96.4179 9.55208Z" fill="#141C24"/>
<path d="M113.209 16.7681V24.4534C113.209 24.6881 113.346 24.8054 113.62 24.8054H114.999V25.3334H109.719V24.8054H110.687C110.961 24.8054 111.097 24.6881 111.097 24.4534V16.3867C111.097 15.3894 110.873 14.6561 110.423 14.1867C109.993 13.6979 109.416 13.4534 108.692 13.4534C107.675 13.4534 106.834 14.0596 106.169 15.2721C105.505 16.465 105.172 18.1859 105.172 20.4347V24.3947C105.172 24.6685 105.309 24.8054 105.583 24.8054H106.551V25.3334H101.271V24.8054H102.649C102.923 24.8054 103.06 24.6881 103.06 24.4534V7.26408C103.06 6.9903 102.923 6.85341 102.649 6.85341H101.271V6.32542H102.708C103.881 6.32542 104.703 6.26675 105.172 6.14941V16.4747C105.837 13.6979 107.304 12.3094 109.572 12.3094C110.589 12.3094 111.449 12.681 112.153 13.4241C112.857 14.1476 113.209 15.2623 113.209 16.7681Z" fill="#141C24"/>
<path d="M124.542 12.3094C125.304 12.3094 125.92 12.6321 126.39 13.2774C126.878 13.9227 127.123 14.7343 127.123 15.7121C127.123 16.6899 126.722 17.1787 125.92 17.1787C125.451 17.1787 125.07 17.0321 124.776 16.7387C125.03 16.1716 125.158 15.5947 125.158 15.0081C125.158 13.9716 124.727 13.4534 123.867 13.4534C123.143 13.4534 122.498 14.0596 121.931 15.2721C121.383 16.465 121.11 18.2054 121.11 20.4934V24.3947C121.11 24.6685 121.246 24.8054 121.52 24.8054H123.486V25.3334H117.208V24.8054H118.587C118.861 24.8054 118.998 24.6685 118.998 24.3947V13.6001C118.998 13.3263 118.861 13.1894 118.587 13.1894H117.208V12.6614H118.646C119.819 12.6614 120.64 12.6027 121.11 12.4854V16.2401C121.422 14.8907 121.882 13.9032 122.488 13.2774C123.094 12.6321 123.779 12.3094 124.542 12.3094Z" fill="#141C24"/>
<path d="M130.077 23.8961C128.981 22.7032 128.434 21.0703 128.434 18.9974C128.434 16.9245 128.981 15.2916 130.077 14.0987C131.172 12.9059 132.599 12.3094 134.359 12.3094C136.119 12.3094 137.547 12.9059 138.642 14.0987C139.757 15.2916 140.314 16.9245 140.314 18.9974C140.314 21.0703 139.757 22.7032 138.642 23.8961C137.547 25.089 136.119 25.6854 134.359 25.6854C132.599 25.6854 131.172 25.089 130.077 23.8961ZM131.719 14.5974C131.015 15.673 130.663 17.1396 130.663 18.9974C130.663 20.8552 131.015 22.3316 131.719 23.4267C132.423 24.5023 133.303 25.0401 134.359 25.0401C135.415 25.0401 136.295 24.5023 136.999 23.4267C137.723 22.3316 138.085 20.8552 138.085 18.9974C138.085 17.1396 137.723 15.673 136.999 14.5974C136.295 13.5023 135.415 12.9547 134.359 12.9547C133.303 12.9547 132.423 13.5023 131.719 14.5974Z" fill="#141C24"/>
<path d="M154.756 16.7681V24.4534C154.756 24.6881 154.893 24.8054 155.167 24.8054H156.546V25.3334H151.266V24.8054H152.234C152.507 24.8054 152.644 24.6881 152.644 24.4534V16.3867C152.644 15.3894 152.419 14.6561 151.97 14.1867C151.539 13.6979 150.962 13.4534 150.239 13.4534C149.222 13.4534 148.381 14.0596 147.716 15.2721C147.051 16.465 146.719 18.1859 146.719 20.4347V24.3947C146.719 24.6685 146.856 24.8054 147.13 24.8054H148.098V25.3334H142.818V24.8054H144.196C144.47 24.8054 144.607 24.6881 144.607 24.4534V13.6001C144.607 13.3263 144.47 13.1894 144.196 13.1894H142.818V12.6614H144.255C145.428 12.6614 146.25 12.6027 146.719 12.4854V16.4747C147.384 13.6979 148.85 12.3094 151.119 12.3094C152.136 12.3094 152.996 12.681 153.7 13.4241C154.404 14.1476 154.756 15.2623 154.756 16.7681Z" fill="#141C24"/>
</svg>
